<svg width="27" height="27" viewBox="0 0 27 27" fill="none" xmlns="http://www.w3.org/2000/svg">
<path d="M19.2223 7.875C20.6441 7.875 22.1355 8.89835 22.6624 11.3851L23.5274 18.3541C24.1637 22.8977 21.6085 24.75 18.1783 24.75H8.8521C5.41195 24.75 2.77715 23.4708 3.49302 18.3541L4.36797 11.3851C4.81539 8.82671 6.3565 7.875 7.79818 7.875H19.2223ZM10.2341 11.6205C9.68501 11.6205 9.23986 12.0786 9.23986 12.6438C9.23986 13.209 9.68501 13.6671 10.2341 13.6671C10.7832 13.6671 11.2284 13.209 11.2284 12.6438L11.2206 12.5154C11.1593 12.0108 10.741 11.6205 10.2341 11.6205ZM16.7465 11.6205C16.1974 11.6205 15.7523 12.0786 15.7523 12.6438C15.7523 13.209 16.1974 13.6671 16.7465 13.6671C17.2957 13.6671 17.7408 13.209 17.7408 12.6438C17.7408 12.0786 17.2957 11.6205 16.7465 11.6205Z" fill="#00C853"/>
<path opacity="0.4" d="M19.0956 7.62111C19.0991 7.70838 19.0824 7.79527 19.0466 7.875H17.4299C17.3986 7.79394 17.382 7.70797 17.3809 7.62111C17.3809 5.46393 15.6261 3.71518 13.4615 3.71518C11.2968 3.71518 9.54207 5.46393 9.54207 7.62111C9.5569 7.7051 9.5569 7.79102 9.54207 7.875H7.88612C7.87129 7.79102 7.87129 7.7051 7.88612 7.62111C8.01194 4.61915 10.4906 2.25 13.5056 2.25C16.5205 2.25 18.9992 4.61915 19.125 7.62111H19.0956Z" fill="#00C853"/>
</svg>
