<svg width="224" height="224" viewBox="0 0 224 224" fill="none" xmlns="http://www.w3.org/2000/svg">
<path d="M214.156 0H180.469C179.599 0 178.764 0.345702 178.149 0.961056C177.533 1.57641 177.188 2.41101 177.188 3.28125C177.188 4.15149 177.533 4.98609 178.149 5.60144C178.764 6.2168 179.599 6.5625 180.469 6.5625H214.156C215.026 6.56343 215.86 6.90943 216.475 7.52458C217.091 8.13973 217.437 8.97379 217.438 9.84375V43.5312C217.438 44.4015 217.783 45.2361 218.399 45.8514C219.014 46.4668 219.849 46.8125 220.719 46.8125C221.589 46.8125 222.424 46.4668 223.039 45.8514C223.654 45.2361 224 44.4015 224 43.5312V9.84375C223.997 7.23391 222.959 4.7318 221.114 2.88637C219.268 1.04093 216.766 0.002895 214.156 0ZM3.28125 46.8125C4.15149 46.8125 4.98609 46.4668 5.60144 45.8514C6.2168 45.2361 6.5625 44.4015 6.5625 43.5312V9.84375C6.56343 8.97379 6.90943 8.13973 7.52458 7.52458C8.13973 6.90943 8.97379 6.56343 9.84375 6.5625H43.5312C44.4015 6.5625 45.2361 6.2168 45.8514 5.60144C46.4668 4.98609 46.8125 4.15149 46.8125 3.28125C46.8125 2.41101 46.4668 1.57641 45.8514 0.961056C45.2361 0.345702 44.4015 0 43.5312 0L9.84375 0C7.23391 0.002895 4.7318 1.04093 2.88637 2.88637C1.04093 4.7318 0.002895 7.23391 0 9.84375L0 43.5312C0 44.4015 0.345702 45.2361 0.961056 45.8514C1.57641 46.4668 2.41101 46.8125 3.28125 46.8125ZM220.719 177.188C219.849 177.188 219.014 177.533 218.399 178.149C217.783 178.764 217.438 179.599 217.438 180.469V214.156C217.437 215.026 217.091 215.86 216.475 216.475C215.86 217.091 215.026 217.437 214.156 217.438H180.469C179.599 217.438 178.764 217.783 178.149 218.399C177.533 219.014 177.188 219.849 177.188 220.719C177.188 221.589 177.533 222.424 178.149 223.039C178.764 223.654 179.599 224 180.469 224H214.156C216.766 223.997 219.268 222.959 221.114 221.114C222.959 219.268 223.997 216.766 224 214.156V180.469C224 179.599 223.654 178.764 223.039 178.149C222.424 177.533 221.589 177.188 220.719 177.188ZM43.5312 217.438H9.84375C8.97379 217.437 8.13973 217.091 7.52458 216.475C6.90943 215.86 6.56343 215.026 6.5625 214.156V180.469C6.5625 179.599 6.2168 178.764 5.60144 178.149C4.98609 177.533 4.15149 177.188 3.28125 177.188C2.41101 177.188 1.57641 177.533 0.961056 178.149C0.345702 178.764 0 179.599 0 180.469L0 214.156C0.002895 216.766 1.04093 219.268 2.88637 221.114C4.7318 222.959 7.23391 223.997 9.84375 224H43.5312C44.4015 224 45.2361 223.654 45.8514 223.039C46.4668 222.424 46.8125 221.589 46.8125 220.719C46.8125 219.849 46.4668 219.014 45.8514 218.399C45.2361 217.783 44.4015 217.438 43.5312 217.438ZM32.8125 49.2188V82.9062C32.8174 87.256 34.5474 91.4261 37.6231 94.5018C40.6989 97.5776 44.869 99.3076 49.2188 99.3125H82.9062C87.256 99.3076 91.4261 97.5776 94.5018 94.5018C97.5776 91.4261 99.3076 87.256 99.3125 82.9062V49.2188C99.3076 44.869 97.5776 40.6989 94.5018 37.6231C91.4261 34.5474 87.256 32.8174 82.9062 32.8125H49.2188C44.869 32.8174 40.6989 34.5474 37.6231 37.6231C34.5474 40.6989 32.8174 44.869 32.8125 49.2188ZM39.375 49.2188C39.3779 46.6089 40.4159 44.1068 42.2614 42.2614C44.1068 40.4159 46.6089 39.3779 49.2188 39.375H82.9062C85.5161 39.3779 88.0182 40.4159 89.8636 42.2614C91.7091 44.1068 92.7471 46.6089 92.75 49.2188V82.9062C92.7471 85.5161 91.7091 88.0182 89.8636 89.8636C88.0182 91.7091 85.5161 92.7471 82.9062 92.75H49.2188C46.6089 92.7471 44.1068 91.7091 42.2614 89.8636C40.4159 88.0182 39.3779 85.5161 39.375 82.9062V49.2188ZM57.9688 76.3438H74.1562C74.7364 76.3438 75.2928 76.1133 75.703 75.703C76.1133 75.2928 76.3438 74.7364 76.3438 74.1562V57.9688C76.3438 57.3886 76.1133 56.8322 75.703 56.422C75.2928 56.0117 74.7364 55.7812 74.1562 55.7812H57.9688C57.3886 55.7812 56.8322 56.0117 56.422 56.422C56.0117 56.8322 55.7812 57.3886 55.7812 57.9688V74.1562C55.7812 74.7364 56.0117 75.2928 56.422 75.703C56.8322 76.1133 57.3886 76.3438 57.9688 76.3438ZM141.094 99.3125H174.781C179.131 99.3076 183.301 97.5776 186.377 94.5018C189.453 91.4261 191.183 87.256 191.188 82.9062V49.2188C191.183 44.869 189.453 40.6989 186.377 37.6231C183.301 34.5474 179.131 32.8174 174.781 32.8125H141.094C136.744 32.8174 132.574 34.5474 129.498 37.6231C126.422 40.6989 124.692 44.869 124.688 49.2188V82.9062C124.692 87.256 126.422 91.4261 129.498 94.5018C132.574 97.5776 136.744 99.3076 141.094 99.3125ZM131.25 49.2188C131.253 46.6089 132.291 44.1068 134.136 42.2614C135.982 40.4159 138.484 39.3779 141.094 39.375H174.781C177.391 39.3779 179.893 40.4159 181.739 42.2614C183.584 44.1068 184.622 46.6089 184.625 49.2188V82.9062C184.622 85.5161 183.584 88.0182 181.739 89.8636C179.893 91.7091 177.391 92.7471 174.781 92.75H141.094C138.484 92.7471 135.982 91.7091 134.136 89.8636C132.291 88.0182 131.253 85.5161 131.25 82.9062V49.2188ZM149.844 76.3438H166.031C166.611 76.3438 167.168 76.1133 167.578 75.703C167.988 75.2928 168.219 74.7364 168.219 74.1562V57.9688C168.219 57.3886 167.988 56.8322 167.578 56.422C167.168 56.0117 166.611 55.7812 166.031 55.7812H149.844C149.264 55.7812 148.707 56.0117 148.297 56.422C147.887 56.8322 147.656 57.3886 147.656 57.9688V74.1562C147.656 74.7364 147.887 75.2928 148.297 75.703C148.707 76.1133 149.264 76.3438 149.844 76.3438ZM164.938 131.25V124.688H158.375V131.25H164.938ZM171.5 164.062H178.062V157.5H171.5V164.062ZM158.375 157.5H151.812V164.062H158.375V157.5ZM151.812 137.812H158.375V131.25H151.812V137.812ZM108.719 92.75V99.3125H115.281V92.75H108.719ZM191.188 187.469V167.781C191.188 166.911 190.842 166.076 190.226 165.461C189.611 164.846 188.776 164.5 187.906 164.5H182.656C181.786 164.5 180.951 164.846 180.336 165.461C179.721 166.076 179.375 166.911 179.375 167.781C179.375 168.651 179.721 169.486 180.336 170.101C180.951 170.717 181.786 171.062 182.656 171.062H184.625V184.188H141.969C141.099 184.188 140.264 184.533 139.649 185.149C139.033 185.764 138.688 186.599 138.688 187.469C138.688 188.339 139.033 189.174 139.649 189.789C140.264 190.404 141.099 190.75 141.969 190.75H187.906C188.776 190.75 189.611 190.404 190.226 189.789C190.842 189.174 191.188 188.339 191.188 187.469ZM141.094 151.375H174.781C175.651 151.375 176.486 151.029 177.101 150.414C177.717 149.799 178.062 148.964 178.062 148.094C178.062 147.224 177.717 146.389 177.101 145.774C176.486 145.158 175.651 144.812 174.781 144.812H141.094C140.224 144.812 139.389 145.158 138.774 145.774C138.158 146.389 137.812 147.224 137.812 148.094C137.812 148.964 138.158 149.799 138.774 150.414C139.389 151.029 140.224 151.375 141.094 151.375ZM154.219 177.625H168.219C169.089 177.625 169.924 177.279 170.539 176.664C171.154 176.049 171.5 175.214 171.5 174.344C171.5 173.474 171.154 172.639 170.539 172.024C169.924 171.408 169.089 171.062 168.219 171.062H154.219C153.349 171.062 152.514 171.408 151.899 172.024C151.283 172.639 150.938 173.474 150.938 174.344C150.938 175.214 151.283 176.049 151.899 176.664C152.514 177.279 153.349 177.625 154.219 177.625ZM74.1562 147.656H57.9688C57.3886 147.656 56.8322 147.887 56.422 148.297C56.0117 148.707 55.7812 149.264 55.7812 149.844V166.031C55.7812 166.611 56.0117 167.168 56.422 167.578C56.8322 167.988 57.3886 168.219 57.9688 168.219H74.1562C74.7364 168.219 75.2928 167.988 75.703 167.578C76.1133 167.168 76.3438 166.611 76.3438 166.031V149.844C76.3438 149.264 76.1133 148.707 75.703 148.297C75.2928 147.887 74.7364 147.656 74.1562 147.656ZM82.9062 124.688H49.2188C44.869 124.692 40.6989 126.422 37.6231 129.498C34.5474 132.574 32.8174 136.744 32.8125 141.094V174.781C32.8174 179.131 34.5474 183.301 37.6231 186.377C40.6989 189.453 44.869 191.183 49.2188 191.188H82.9062C87.256 191.183 91.4261 189.453 94.5018 186.377C97.5776 183.301 99.3076 179.131 99.3125 174.781V141.094C99.3076 136.744 97.5776 132.574 94.5018 129.498C91.4261 126.422 87.256 124.692 82.9062 124.688ZM92.75 174.781C92.7471 177.391 91.7091 179.893 89.8636 181.739C88.0182 183.584 85.5161 184.622 82.9062 184.625H49.2188C46.6089 184.622 44.1068 183.584 42.2614 181.739C40.4159 179.893 39.3779 177.391 39.375 174.781V141.094C39.3779 138.484 40.4159 135.982 42.2614 134.136C44.1068 132.291 46.6089 131.253 49.2188 131.25H82.9062C85.5161 131.253 88.0182 132.291 89.8636 134.136C91.7091 135.982 92.7471 138.484 92.75 141.094V174.781ZM112 144.375C111.13 144.375 110.295 144.721 109.68 145.336C109.064 145.951 108.719 146.786 108.719 147.656V187.906C108.719 188.776 109.064 189.611 109.68 190.226C110.295 190.842 111.13 191.188 112 191.188C112.87 191.188 113.705 190.842 114.32 190.226C114.936 189.611 115.281 188.776 115.281 187.906V147.656C115.281 146.786 114.936 145.951 114.32 145.336C113.705 144.721 112.87 144.375 112 144.375ZM108.719 131.25H115.281V124.688H108.719V131.25ZM124.688 190.75H131.25V184.188H124.688V190.75ZM127.969 124.688C127.099 124.688 126.264 125.033 125.649 125.649C125.033 126.264 124.688 127.099 124.688 127.969V168.219C124.688 169.089 125.033 169.924 125.649 170.539C126.264 171.154 127.099 171.5 127.969 171.5C128.839 171.5 129.674 171.154 130.289 170.539C130.904 169.924 131.25 169.089 131.25 168.219V127.969C131.25 127.099 130.904 126.264 130.289 125.649C129.674 125.033 128.839 124.688 127.969 124.688ZM138.688 160.344V174.344C138.688 175.214 139.033 176.049 139.649 176.664C140.264 177.279 141.099 177.625 141.969 177.625C142.839 177.625 143.674 177.279 144.289 176.664C144.904 176.049 145.25 175.214 145.25 174.344V160.344C145.25 159.474 144.904 158.639 144.289 158.024C143.674 157.408 142.839 157.062 141.969 157.062C141.099 157.062 140.264 157.408 139.649 158.024C139.033 158.639 138.688 159.474 138.688 160.344ZM187.906 151.812C188.776 151.812 189.611 151.467 190.226 150.851C190.842 150.236 191.188 149.401 191.188 148.531V127.969C191.188 127.099 190.842 126.264 190.226 125.649C189.611 125.033 188.776 124.688 187.906 124.688H175.203C174.333 124.688 173.499 125.033 172.883 125.649C172.268 126.264 171.922 127.099 171.922 127.969C171.922 128.839 172.268 129.674 172.883 130.289C173.499 130.904 174.333 131.25 175.203 131.25H184.625V148.531C184.625 149.401 184.971 150.236 185.586 150.851C186.201 151.467 187.036 151.812 187.906 151.812ZM104.454 39.375H108.719V82.9062C108.719 83.7765 109.064 84.6111 109.68 85.2264C110.295 85.8418 111.13 86.1875 112 86.1875C112.87 86.1875 113.705 85.8418 114.32 85.2264C114.936 84.6111 115.281 83.7765 115.281 82.9062V36.0938C115.281 35.2235 114.936 34.3889 114.32 33.7736C113.705 33.1582 112.87 32.8125 112 32.8125H104.454C103.584 32.8125 102.749 33.1582 102.134 33.7736C101.518 34.3889 101.173 35.2235 101.173 36.0938C101.173 36.964 101.518 37.7986 102.134 38.4139C102.749 39.0293 103.584 39.375 104.454 39.375ZM210.438 112C210.438 111.13 210.092 110.295 209.476 109.68C208.861 109.064 208.026 108.719 207.156 108.719H16.8438C15.9735 108.719 15.1389 109.064 14.5236 109.68C13.9082 110.295 13.5625 111.13 13.5625 112C13.5625 112.87 13.9082 113.705 14.5236 114.32C15.1389 114.936 15.9735 115.281 16.8438 115.281H207.156C208.026 115.281 208.861 114.936 209.476 114.32C210.092 113.705 210.438 112.87 210.438 112Z" fill="black"/>
</svg>
