<svg width="30" height="30" viewBox="0 0 30 30" fill="none" xmlns="http://www.w3.org/2000/svg">
<path d="M28.6816 0H24.1699C24.0534 0 23.9416 0.0462994 23.8592 0.128713C23.7768 0.211126 23.7305 0.322903 23.7305 0.439453C23.7305 0.556003 23.7768 0.66778 23.8592 0.750193C23.9416 0.832607 24.0534 0.878906 24.1699 0.878906H28.6816C28.7982 0.87903 28.9099 0.92537 28.9922 1.00776C29.0746 1.09014 29.121 1.20185 29.1211 1.31836V5.83008C29.1211 5.94663 29.1674 6.0584 29.2498 6.14082C29.3322 6.22323 29.444 6.26953 29.5605 6.26953C29.6771 6.26953 29.7889 6.22323 29.8713 6.14082C29.9537 6.0584 30 5.94663 30 5.83008V1.31836C29.9996 0.968828 29.8606 0.633723 29.6134 0.386567C29.3663 0.13941 29.0312 0.000387723 28.6816 0ZM0.439453 6.26953C0.556003 6.26953 0.66778 6.22323 0.750193 6.14082C0.832607 6.0584 0.878906 5.94663 0.878906 5.83008V1.31836C0.87903 1.20185 0.92537 1.09014 1.00776 1.00776C1.09014 0.92537 1.20185 0.87903 1.31836 0.878906H5.83008C5.94663 0.878906 6.0584 0.832607 6.14082 0.750193C6.22323 0.66778 6.26953 0.556003 6.26953 0.439453C6.26953 0.322903 6.22323 0.211126 6.14082 0.128713C6.0584 0.0462994 5.94663 0 5.83008 0L1.31836 0C0.968828 0.000387723 0.633723 0.13941 0.386567 0.386567C0.13941 0.633723 0.000387723 0.968828 0 1.31836L0 5.83008C0 5.94663 0.0462994 6.0584 0.128713 6.14082C0.211126 6.22323 0.322903 6.26953 0.439453 6.26953ZM29.5605 23.7305C29.444 23.7305 29.3322 23.7768 29.2498 23.8592C29.1674 23.9416 29.1211 24.0534 29.1211 24.1699V28.6816C29.121 28.7982 29.0746 28.9099 28.9922 28.9922C28.9099 29.0746 28.7982 29.121 28.6816 29.1211H24.1699C24.0534 29.1211 23.9416 29.1674 23.8592 29.2498C23.7768 29.3322 23.7305 29.444 23.7305 29.5605C23.7305 29.6771 23.7768 29.7889 23.8592 29.8713C23.9416 29.9537 24.0534 30 24.1699 30H28.6816C29.0312 29.9996 29.3663 29.8606 29.6134 29.6134C29.8606 29.3663 29.9996 29.0312 30 28.6816V24.1699C30 24.0534 29.9537 23.9416 29.8713 23.8592C29.7889 23.7768 29.6771 23.7305 29.5605 23.7305ZM5.83008 29.1211H1.31836C1.20185 29.121 1.09014 29.0746 1.00776 28.9922C0.92537 28.9099 0.87903 28.7982 0.878906 28.6816V24.1699C0.878906 24.0534 0.832607 23.9416 0.750193 23.8592C0.66778 23.7768 0.556003 23.7305 0.439453 23.7305C0.322903 23.7305 0.211126 23.7768 0.128713 23.8592C0.0462994 23.9416 0 24.0534 0 24.1699L0 28.6816C0.000387723 29.0312 0.13941 29.3663 0.386567 29.6134C0.633723 29.8606 0.968828 29.9996 1.31836 30H5.83008C5.94663 30 6.0584 29.9537 6.14082 29.8713C6.22323 29.7889 6.26953 29.6771 6.26953 29.5605C6.26953 29.444 6.22323 29.3322 6.14082 29.2498C6.0584 29.1674 5.94663 29.1211 5.83008 29.1211ZM4.39453 6.5918V11.1035C4.39518 11.6861 4.62689 12.2446 5.03882 12.6565C5.45074 13.0684 6.00925 13.3001 6.5918 13.3008H11.1035C11.6861 13.3001 12.2446 13.0684 12.6565 12.6565C13.0684 12.2446 13.3001 11.6861 13.3008 11.1035V6.5918C13.3001 6.00925 13.0684 5.45074 12.6565 5.03882C12.2446 4.62689 11.6861 4.39518 11.1035 4.39453H6.5918C6.00925 4.39518 5.45074 4.62689 5.03882 5.03882C4.62689 5.45074 4.39518 6.00925 4.39453 6.5918ZM5.27344 6.5918C5.27383 6.24227 5.41285 5.90716 5.66 5.66C5.90716 5.41285 6.24227 5.27383 6.5918 5.27344H11.1035C11.453 5.27383 11.7882 5.41285 12.0353 5.66C12.2825 5.90716 12.4215 6.24227 12.4219 6.5918V11.1035C12.4215 11.453 12.2825 11.7882 12.0353 12.0353C11.7882 12.2825 11.453 12.4215 11.1035 12.4219H6.5918C6.24227 12.4215 5.90716 12.2825 5.66 12.0353C5.41285 11.7882 5.27383 11.453 5.27344 11.1035V6.5918ZM7.76367 10.2246H9.93164C10.0093 10.2246 10.0839 10.1937 10.1388 10.1388C10.1937 10.0839 10.2246 10.0093 10.2246 9.93164V7.76367C10.2246 7.68597 10.1937 7.61145 10.1388 7.55651C10.0839 7.50157 10.0093 7.4707 9.93164 7.4707H7.76367C7.68597 7.4707 7.61145 7.50157 7.55651 7.55651C7.50157 7.61145 7.4707 7.68597 7.4707 7.76367V9.93164C7.4707 10.0093 7.50157 10.0839 7.55651 10.1388C7.61145 10.1937 7.68597 10.2246 7.76367 10.2246ZM18.8965 13.3008H23.4082C23.9908 13.3001 24.5493 13.0684 24.9612 12.6565C25.3731 12.2446 25.6048 11.6861 25.6055 11.1035V6.5918C25.6048 6.00925 25.3731 5.45074 24.9612 5.03882C24.5493 4.62689 23.9908 4.39518 23.4082 4.39453H18.8965C18.3139 4.39518 17.7554 4.62689 17.3435 5.03882C16.9316 5.45074 16.6999 6.00925 16.6992 6.5918V11.1035C16.6999 11.6861 16.9316 12.2446 17.3435 12.6565C17.7554 13.0684 18.3139 13.3001 18.8965 13.3008ZM17.5781 6.5918C17.5785 6.24227 17.7175 5.90716 17.9647 5.66C18.2118 5.41285 18.547 5.27383 18.8965 5.27344H23.4082C23.7577 5.27383 24.0928 5.41285 24.34 5.66C24.5872 5.90716 24.7262 6.24227 24.7266 6.5918V11.1035C24.7262 11.453 24.5872 11.7882 24.34 12.0353C24.0928 12.2825 23.7577 12.4215 23.4082 12.4219H18.8965C18.547 12.4215 18.2118 12.2825 17.9647 12.0353C17.7175 11.7882 17.5785 11.453 17.5781 11.1035V6.5918ZM20.0684 10.2246H22.2363C22.314 10.2246 22.3885 10.1937 22.4435 10.1388C22.4984 10.0839 22.5293 10.0093 22.5293 9.93164V7.76367C22.5293 7.68597 22.4984 7.61145 22.4435 7.55651C22.3885 7.50157 22.314 7.4707 22.2363 7.4707H20.0684C19.9907 7.4707 19.9161 7.50157 19.8612 7.55651C19.8063 7.61145 19.7754 7.68597 19.7754 7.76367V9.93164C19.7754 10.0093 19.8063 10.0839 19.8612 10.1388C19.9161 10.1937 19.9907 10.2246 20.0684 10.2246ZM22.0898 17.5781V16.6992H21.2109V17.5781H22.0898ZM22.9688 21.9727H23.8477V21.0938H22.9688V21.9727ZM21.2109 21.0938H20.332V21.9727H21.2109V21.0938ZM20.332 18.457H21.2109V17.5781H20.332V18.457ZM14.5605 12.4219V13.3008H15.4395V12.4219H14.5605ZM25.6055 25.1074V22.4707C25.6055 22.3542 25.5592 22.2424 25.4768 22.16C25.3943 22.0775 25.2826 22.0312 25.166 22.0312H24.4629C24.3463 22.0312 24.2346 22.0775 24.1521 22.16C24.0697 22.2424 24.0234 22.3542 24.0234 22.4707C24.0234 22.5873 24.0697 22.699 24.1521 22.7814C24.2346 22.8639 24.3463 22.9102 24.4629 22.9102H24.7266V24.668H19.0137C18.8971 24.668 18.7853 24.7143 18.7029 24.7967C18.6205 24.8791 18.5742 24.9909 18.5742 25.1074C18.5742 25.224 18.6205 25.3357 18.7029 25.4182C18.7853 25.5006 18.8971 25.5469 19.0137 25.5469H25.166C25.2826 25.5469 25.3943 25.5006 25.4768 25.4182C25.5592 25.3357 25.6055 25.224 25.6055 25.1074ZM18.8965 20.2734H23.4082C23.5248 20.2734 23.6365 20.2271 23.7189 20.1447C23.8014 20.0623 23.8477 19.9505 23.8477 19.834C23.8477 19.7174 23.8014 19.6057 23.7189 19.5232C23.6365 19.4408 23.5248 19.3945 23.4082 19.3945H18.8965C18.7799 19.3945 18.6682 19.4408 18.5857 19.5232C18.5033 19.6057 18.457 19.7174 18.457 19.834C18.457 19.9505 18.5033 20.0623 18.5857 20.1447C18.6682 20.2271 18.7799 20.2734 18.8965 20.2734ZM20.6543 23.7891H22.5293C22.6458 23.7891 22.7576 23.7428 22.84 23.6604C22.9225 23.5779 22.9688 23.4662 22.9688 23.3496C22.9688 23.2331 22.9225 23.1213 22.84 23.0389C22.7576 22.9565 22.6458 22.9102 22.5293 22.9102H20.6543C20.5377 22.9102 20.426 22.9565 20.3436 23.0389C20.2611 23.1213 20.2148 23.2331 20.2148 23.3496C20.2148 23.4662 20.2611 23.5779 20.3436 23.6604C20.426 23.7428 20.5377 23.7891 20.6543 23.7891ZM9.93164 19.7754H7.76367C7.68597 19.7754 7.61145 19.8063 7.55651 19.8612C7.50157 19.9161 7.4707 19.9907 7.4707 20.0684V22.2363C7.4707 22.314 7.50157 22.3885 7.55651 22.4435C7.61145 22.4984 7.68597 22.5293 7.76367 22.5293H9.93164C10.0093 22.5293 10.0839 22.4984 10.1388 22.4435C10.1937 22.3885 10.2246 22.314 10.2246 22.2363V20.0684C10.2246 19.9907 10.1937 19.9161 10.1388 19.8612C10.0839 19.8063 10.0093 19.7754 9.93164 19.7754ZM11.1035 16.6992H6.5918C6.00925 16.6999 5.45074 16.9316 5.03882 17.3435C4.62689 17.7554 4.39518 18.3139 4.39453 18.8965V23.4082C4.39518 23.9908 4.62689 24.5493 5.03882 24.9612C5.45074 25.3731 6.00925 25.6048 6.5918 25.6055H11.1035C11.6861 25.6048 12.2446 25.3731 12.6565 24.9612C13.0684 24.5493 13.3001 23.9908 13.3008 23.4082V18.8965C13.3001 18.3139 13.0684 17.7554 12.6565 17.3435C12.2446 16.9316 11.6861 16.6999 11.1035 16.6992ZM12.4219 23.4082C12.4215 23.7577 12.2825 24.0928 12.0353 24.34C11.7882 24.5872 11.453 24.7262 11.1035 24.7266H6.5918C6.24227 24.7262 5.90716 24.5872 5.66 24.34C5.41285 24.0928 5.27383 23.7577 5.27344 23.4082V18.8965C5.27383 18.547 5.41285 18.2118 5.66 17.9647C5.90716 17.7175 6.24227 17.5785 6.5918 17.5781H11.1035C11.453 17.5785 11.7882 17.7175 12.0353 17.9647C12.2825 18.2118 12.4215 18.547 12.4219 18.8965V23.4082ZM15 19.3359C14.8834 19.3359 14.7717 19.3822 14.6893 19.4646C14.6068 19.5471 14.5605 19.6588 14.5605 19.7754V25.166C14.5605 25.2826 14.6068 25.3943 14.6893 25.4768C14.7717 25.5592 14.8834 25.6055 15 25.6055C15.1166 25.6055 15.2283 25.5592 15.3107 25.4768C15.3932 25.3943 15.4395 25.2826 15.4395 25.166V19.7754C15.4395 19.6588 15.3932 19.5471 15.3107 19.4646C15.2283 19.3822 15.1166 19.3359 15 19.3359ZM14.5605 17.5781H15.4395V16.6992H14.5605V17.5781ZM16.6992 25.5469H17.5781V24.668H16.6992V25.5469ZM17.1387 16.6992C17.0221 16.6992 16.9103 16.7455 16.8279 16.8279C16.7455 16.9103 16.6992 17.0221 16.6992 17.1387V22.5293C16.6992 22.6458 16.7455 22.7576 16.8279 22.84C16.9103 22.9225 17.0221 22.9688 17.1387 22.9688C17.2552 22.9688 17.367 22.9225 17.4494 22.84C17.5318 22.7576 17.5781 22.6458 17.5781 22.5293V17.1387C17.5781 17.0221 17.5318 16.9103 17.4494 16.8279C17.367 16.7455 17.2552 16.6992 17.1387 16.6992ZM18.5742 21.4746V23.3496C18.5742 23.4662 18.6205 23.5779 18.7029 23.6604C18.7853 23.7428 18.8971 23.7891 19.0137 23.7891C19.1302 23.7891 19.242 23.7428 19.3244 23.6604C19.4068 23.5779 19.4531 23.4662 19.4531 23.3496V21.4746C19.4531 21.3581 19.4068 21.2463 19.3244 21.1639C19.242 21.0815 19.1302 21.0352 19.0137 21.0352C18.8971 21.0352 18.7853 21.0815 18.7029 21.1639C18.6205 21.2463 18.5742 21.3581 18.5742 21.4746ZM25.166 20.332C25.2826 20.332 25.3943 20.2857 25.4768 20.2033C25.5592 20.1209 25.6055 20.0091 25.6055 19.8926V17.1387C25.6055 17.0221 25.5592 16.9103 25.4768 16.8279C25.3943 16.7455 25.2826 16.6992 25.166 16.6992H23.4647C23.3482 16.6992 23.2364 16.7455 23.154 16.8279C23.0716 16.9103 23.0253 17.0221 23.0253 17.1387C23.0253 17.2552 23.0716 17.367 23.154 17.4494C23.2364 17.5318 23.3482 17.5781 23.4647 17.5781H24.7266V19.8926C24.7266 20.0091 24.7729 20.1209 24.8553 20.2033C24.9377 20.2857 25.0495 20.332 25.166 20.332ZM13.9894 5.27344H14.5605V11.1035C14.5605 11.2201 14.6068 11.3318 14.6893 11.4143C14.7717 11.4967 14.8834 11.543 15 11.543C15.1166 11.543 15.2283 11.4967 15.3107 11.4143C15.3932 11.3318 15.4395 11.2201 15.4395 11.1035V4.83398C15.4395 4.71743 15.3932 4.60566 15.3107 4.52324C15.2283 4.44083 15.1166 4.39453 15 4.39453H13.9894C13.8728 4.39453 13.761 4.44083 13.6786 4.52324C13.5962 4.60566 13.5499 4.71743 13.5499 4.83398C13.5499 4.95053 13.5962 5.06231 13.6786 5.14472C13.761 5.22714 13.8728 5.27344 13.9894 5.27344ZM28.1836 15C28.1836 14.8834 28.1373 14.7717 28.0549 14.6893C27.9725 14.6068 27.8607 14.5605 27.7441 14.5605H2.25586C2.13931 14.5605 2.02753 14.6068 1.94512 14.6893C1.86271 14.7717 1.81641 14.8834 1.81641 15C1.81641 15.1166 1.86271 15.2283 1.94512 15.3107C2.02753 15.3932 2.13931 15.4395 2.25586 15.4395H27.7441C27.8607 15.4395 27.9725 15.3932 28.0549 15.3107C28.1373 15.2283 28.1836 15.1166 28.1836 15Z" fill="black"/>
</svg>
