<svg width="20" height="20" viewBox="0 0 20 20" fill="none" xmlns="http://www.w3.org/2000/svg">
<g clip-path="url(#clip0_47_2162)">
<path d="M2.58282 18.85L4.24025 13.0781L5.38595 13.343L3.72853 19.1148L2.58282 18.85Z" fill="white"/>
<path d="M3.69104 17.7129L6.05159 19.5379C6.14299 19.6086 6.0719 19.7332 5.95666 19.7028L0.380884 18.2813C0.265649 18.252 0.263696 18.1098 0.377368 18.0914L3.3301 17.6211C3.39335 17.6113 3.45793 17.6143 3.51996 17.6301C3.58199 17.6459 3.64019 17.6741 3.69104 17.7129Z" fill="white"/>
<path d="M9.41406 4.62002C9.38125 5.65361 9.19687 6.83486 8.85 8.05752C7.86641 11.5286 5.94883 14.0286 4.5668 13.6411C3.18477 13.2536 2.8625 10.1255 3.84609 6.65479C4.19336 5.42979 4.65664 4.32588 5.17187 3.42705C5.21417 3.35286 5.28004 3.29493 5.35901 3.26245C5.43799 3.22996 5.52556 3.22479 5.60781 3.24775L9.13516 4.23643C9.21799 4.25972 9.29057 4.31023 9.34117 4.37983C9.39177 4.44943 9.41745 4.53404 9.41406 4.62002Z" fill="white"/>
<path d="M9.23163 4.28125C9.15494 5.30359 8.97312 6.31532 8.68905 7.30039C7.70546 10.7715 5.78788 13.2715 4.40585 12.884C3.916 12.7469 3.55936 12.2645 3.34686 11.5449C3.50311 12.6805 3.91874 13.4613 4.56522 13.6426C5.94725 14.0301 7.86483 11.5301 8.84843 8.05898C9.1953 6.83477 9.37968 5.65352 9.41249 4.62148C9.41507 4.55385 9.3997 4.48674 9.36793 4.42698C9.33616 4.36722 9.28914 4.31694 9.23163 4.28125Z" fill="white"/>
<path d="M8.84841 8.05898C7.86482 11.5301 5.94724 14.0301 4.56521 13.6426C3.18318 13.2551 2.86091 10.1269 3.84451 6.65624C4.71833 6.51484 5.31052 6.66992 5.70974 6.86835C6.30154 7.16288 6.44138 7.53906 7.03787 7.83554C7.66404 8.14882 8.33005 8.13906 8.84841 8.05898Z" fill="white"/>
<path d="M4.56521 12.4708C3.81911 12.2618 3.38201 11.2536 3.29255 9.82393C3.17888 11.8583 3.62849 13.3786 4.56521 13.6427C5.94724 14.0302 7.86482 11.5302 8.84841 8.05908C8.72419 8.07822 8.59138 8.09307 8.4531 8.10088C7.40857 10.9208 5.78122 12.8126 4.56521 12.4708Z" fill="white"/>
<path d="M17.4172 18.85L15.7598 13.0781L14.6141 13.343L16.2715 19.1148L17.4172 18.85Z" fill="white"/>
<path d="M16.309 17.7129L13.9484 19.5379C13.857 19.6086 13.9281 19.7332 14.0434 19.7028L19.6192 18.2813C19.7344 18.252 19.7363 18.1098 19.6227 18.0914L16.6699 17.6211C16.6067 17.6113 16.5421 17.6143 16.4801 17.6301C16.418 17.6459 16.3598 17.6741 16.309 17.7129Z" fill="white"/>
<path d="M15.4348 13.6425C14.0528 14.03 12.1352 11.53 11.1516 8.05889C10.8047 6.83467 10.6203 5.65342 10.5875 4.62139C10.5845 4.53567 10.6103 4.45142 10.6609 4.38214C10.7115 4.31287 10.7839 4.26258 10.8664 4.23936L14.3938 3.25068C14.476 3.22772 14.5636 3.23289 14.6426 3.26538C14.7215 3.29786 14.7874 3.35579 14.8297 3.42998C15.3449 4.32842 15.8082 5.43272 16.1555 6.65772C17.1391 10.1272 16.8164 13.2554 15.4348 13.6425Z" fill="white"/>
<path d="M16.1555 6.6562C15.8082 5.4312 15.3449 4.3273 14.8297 3.42847C14.8007 3.37787 14.7606 3.33447 14.7125 3.30151C15.0604 4.05186 15.3478 4.82882 15.5719 5.62495C16.5555 9.09605 16.2328 12.2242 14.8512 12.6113C14.043 12.8378 13.052 12.0769 12.1715 10.7125C13.1727 12.707 14.4434 13.921 15.4371 13.6421C16.8164 13.2554 17.1391 10.1273 16.1555 6.6562Z" fill="white"/>
<path d="M15.4348 13.6426C14.0527 14.0301 12.1351 11.5301 11.1516 8.05898C11.6699 8.13906 12.3359 8.14882 12.9637 7.83554C13.5586 7.53906 13.6984 7.16288 14.2918 6.86835C14.691 6.66992 15.2832 6.51484 16.157 6.65624C17.139 10.1273 16.8164 13.2555 15.4348 13.6426Z" fill="white"/>
<path d="M16.1555 6.65625C16.0422 6.63776 15.9336 6.62474 15.8297 6.61719C16.5063 9.69141 16.125 12.3047 14.8703 12.6563C14.0629 12.8824 13.0734 12.1227 12.1922 10.7598C13.1899 12.7273 14.4488 13.9211 15.4344 13.6445C16.8164 13.2555 17.1391 10.1273 16.1555 6.65625Z" fill="white"/>
<path d="M11.3221 2.275C11.3849 2.32074 11.4632 2.33972 11.54 2.32778C11.6167 2.31585 11.6856 2.27397 11.7315 2.21133L12.5799 1.05156C12.6065 1.02099 12.6264 0.985253 12.6384 0.946607C12.6504 0.907961 12.6543 0.867244 12.6498 0.827023C12.6453 0.786801 12.6325 0.747948 12.6122 0.712914C12.592 0.677879 12.5647 0.647423 12.5321 0.623466C12.4994 0.599509 12.4622 0.58257 12.4227 0.573718C12.3832 0.564865 12.3423 0.564292 12.3026 0.572033C12.2629 0.579774 12.2252 0.595662 12.1919 0.618695C12.1586 0.641728 12.1305 0.671407 12.1092 0.705859L11.2585 1.86523C11.2126 1.92803 11.1935 2.00646 11.2055 2.0833C11.2174 2.16013 11.2594 2.22908 11.3221 2.275ZM8.22603 2.15391C8.24876 2.18497 8.27738 2.21125 8.31026 2.23125C8.34314 2.25125 8.37964 2.26458 8.41767 2.27047C8.45571 2.27636 8.49453 2.27471 8.53192 2.2656C8.56931 2.25649 8.60454 2.24011 8.6356 2.21738C8.66667 2.19466 8.69295 2.16604 8.71295 2.13316C8.73295 2.10028 8.74627 2.06378 8.75217 2.02574C8.75806 1.98771 8.75641 1.94889 8.7473 1.9115C8.73819 1.87411 8.72181 1.83887 8.69908 1.80781L7.89244 0.705859C7.8712 0.671407 7.84306 0.641728 7.80978 0.618695C7.7765 0.595662 7.73881 0.579774 7.69908 0.572033C7.65936 0.564292 7.61846 0.564865 7.57897 0.573718C7.53948 0.58257 7.50225 0.599509 7.46963 0.623466C7.43701 0.647423 7.40971 0.677879 7.38944 0.712914C7.36918 0.747948 7.35639 0.786801 7.3519 0.827023C7.3474 0.867244 7.35128 0.907961 7.3633 0.946607C7.37532 0.985253 7.39522 1.02099 7.42174 1.05156L8.22603 2.15391ZM9.21236 3.95586L5.68502 2.96875C5.54032 2.92798 5.38616 2.93657 5.24688 2.99316C5.1076 3.04975 4.99114 3.15111 4.91588 3.28125C4.37252 4.22969 3.90416 5.36875 3.56236 6.57461C2.80806 9.23867 2.78775 11.793 3.5108 13.0859C3.59422 13.2376 3.69574 13.3786 3.81314 13.5059L2.68658 17.427L0.330721 17.8031C0.242245 17.8155 0.160839 17.8583 0.10047 17.9242C0.0401006 17.99 0.00453037 18.0748 -0.000138406 18.1641C-0.00366289 18.2564 0.0251581 18.3471 0.0813524 18.4205C0.137547 18.4939 0.21759 18.5453 0.307674 18.566L2.45338 19.1129C2.46686 19.1197 2.48083 19.1254 2.49517 19.1301C2.51879 19.1371 2.5432 19.1412 2.56783 19.1422L5.88385 19.9867C5.9187 19.9956 5.95451 20.0002 5.99049 20.0004C6.06464 20.0014 6.13756 19.9813 6.20071 19.9425C6.26387 19.9036 6.31465 19.8475 6.34713 19.7809C6.38574 19.7005 6.39516 19.6092 6.37378 19.5227C6.35239 19.4361 6.30153 19.3598 6.22994 19.3066L4.38658 17.8816L5.55416 13.8156C6.05611 13.593 6.57799 13.1406 7.08775 12.4762C7.91861 11.393 8.64361 9.85274 9.12955 8.14023V8.13242C9.46939 6.93008 9.66744 5.71953 9.70221 4.63125C9.708 4.48008 9.66286 4.33134 9.57404 4.20887C9.48522 4.08641 9.35786 3.99731 9.21236 3.95586ZM5.11705 19.1867L1.36705 18.2313L2.96158 17.9766H2.96666L3.37642 17.9113C3.40017 17.9079 3.42436 17.9091 3.44762 17.915C3.47088 17.9209 3.49275 17.9313 3.51197 17.9457L5.11705 19.1867ZM3.88775 17.4953L3.869 17.4809C3.71372 17.3618 3.51872 17.3067 3.32408 17.327L4.319 13.8672C4.37321 13.8907 4.42894 13.9105 4.4858 13.9266C4.60624 13.9601 4.7307 13.9771 4.85572 13.977H4.89947L3.88775 17.4953ZM8.61783 7.79297C8.06471 7.85117 7.57721 7.77774 7.16666 7.57344C6.9997 7.48913 6.8447 7.38299 6.70572 7.25781C6.67676 7.23247 6.6431 7.21308 6.60665 7.20075C6.5702 7.18842 6.53167 7.18339 6.49328 7.18595C6.45489 7.18851 6.41737 7.1986 6.38288 7.21566C6.34838 7.23271 6.31759 7.25639 6.29225 7.28535C6.2669 7.31431 6.24751 7.34798 6.23518 7.38443C6.22285 7.42088 6.21782 7.4594 6.22038 7.49779C6.22294 7.53619 6.23303 7.5737 6.25009 7.6082C6.26714 7.64269 6.29083 7.67349 6.31978 7.69883C6.49632 7.85746 6.6934 7.99161 6.90572 8.09766C7.32736 8.30221 7.79104 8.40522 8.25963 8.39844C8.32018 8.39844 8.38111 8.39844 8.44283 8.39336C7.98268 9.86914 7.34361 11.1801 6.62369 12.1188C5.90377 13.0574 5.1815 13.5109 4.644 13.3594C4.4026 13.2914 4.19322 13.102 4.02174 12.7961C3.3983 11.6816 3.42174 9.33594 4.07564 6.91992C4.65611 6.85234 5.16119 6.92266 5.57916 7.13047C5.61962 7.15087 5.66432 7.16144 5.70963 7.16133C5.77575 7.16141 5.83995 7.13913 5.8918 7.0981C5.94365 7.05708 5.98009 6.99972 5.99521 6.93535C6.01033 6.87098 6.00323 6.8034 5.97507 6.74358C5.94691 6.68376 5.89934 6.63522 5.8401 6.60586C5.38072 6.37734 4.84752 6.28047 4.25142 6.31641C4.56392 5.3125 4.96744 4.37148 5.4233 3.57422C5.4311 3.5603 5.44243 3.54868 5.45614 3.54052C5.46985 3.53237 5.48547 3.52796 5.50142 3.52773C5.50949 3.52778 5.51751 3.52897 5.52525 3.53125L9.05221 4.51992C9.07171 4.52545 9.08877 4.53742 9.10061 4.55387C9.11246 4.57032 9.11839 4.5903 9.11744 4.61055C9.08814 5.59844 8.9151 6.69492 8.61783 7.79297ZM9.99986 0C9.92216 0 9.84764 0.0308663 9.7927 0.0858086C9.73776 0.140751 9.70689 0.215269 9.70689 0.292969V1.89453C9.70689 1.97223 9.73776 2.04675 9.7927 2.10169C9.84764 2.15663 9.92216 2.1875 9.99986 2.1875C10.0776 2.1875 10.1521 2.15663 10.207 2.10169C10.262 2.04675 10.2928 1.97223 10.2928 1.89453V0.292969C10.2928 0.215269 10.262 0.140751 10.207 0.0858086C10.1521 0.0308663 10.0776 0 9.99986 0ZM19.9999 18.1641C19.9952 18.0749 19.9597 17.9901 19.8994 17.9243C19.8391 17.8584 19.7578 17.8156 19.6694 17.8031L17.3135 17.427L16.1866 13.5043C16.4717 13.1996 16.6901 12.7527 16.8315 12.1762C16.85 12.1007 16.8379 12.021 16.7976 11.9545C16.7573 11.888 16.6923 11.8402 16.6169 11.8217C16.5414 11.8031 16.4616 11.8153 16.3952 11.8556C16.3287 11.8958 16.2809 11.9609 16.2624 12.0363C16.1569 12.466 15.8991 13.2082 15.3553 13.3598C14.8182 13.5102 14.0967 13.0578 13.376 12.1184C12.6553 11.1789 12.017 9.86875 11.5569 8.39297C11.6182 8.39609 11.6796 8.39805 11.7397 8.39805C12.2085 8.40485 12.6723 8.30171 13.094 8.09688C13.4288 7.93008 13.6409 7.73672 13.8264 7.56602C13.9991 7.40781 14.162 7.2582 14.4206 7.12969C14.8381 6.92188 15.3432 6.85156 15.9237 6.91914C16.3088 8.34141 16.4842 9.7582 16.4178 10.9285C16.4134 11.0062 16.4401 11.0825 16.4919 11.1405C16.5437 11.1986 16.6165 11.2337 16.6942 11.2381C16.7719 11.2425 16.8482 11.2158 16.9062 11.164C16.9643 11.1122 16.9994 11.0394 17.0038 10.9617C17.0764 9.67774 16.8756 8.11992 16.4378 6.57539C16.096 5.36953 15.628 4.23164 15.0842 3.28203C15.0091 3.15154 14.8926 3.04986 14.7531 2.99311C14.6136 2.93636 14.4592 2.92779 14.3143 2.96875L10.7874 3.95781C10.6416 3.99846 10.5138 4.08693 10.4244 4.209C10.335 4.33106 10.2892 4.47964 10.2944 4.63086C10.3288 5.71914 10.5268 6.92969 10.8671 8.13203L10.8694 8.13984C11.3549 9.85352 12.0803 11.3938 12.9112 12.4758C13.421 13.1398 13.9428 13.5926 14.4448 13.8152L15.6124 17.8813L13.769 19.3063C13.6974 19.3594 13.6466 19.4358 13.6252 19.5223C13.6038 19.6088 13.6132 19.7001 13.6518 19.7805C13.6843 19.8471 13.735 19.9031 13.7981 19.942C13.8611 19.9808 13.934 20.001 14.0081 20C14.0442 19.9998 14.0801 19.9952 14.1151 19.9863L17.4311 19.1406C17.4559 19.1396 17.4804 19.1356 17.5042 19.1285C17.5185 19.1238 17.5324 19.118 17.546 19.1113L19.6913 18.5645C19.7812 18.5439 19.8612 18.4927 19.9175 18.4197C19.9738 18.3466 20.0029 18.2563 19.9999 18.1641ZM10.8799 4.60938C10.8791 4.58914 10.885 4.5692 10.8969 4.55276C10.9087 4.53632 10.9257 4.52434 10.9452 4.51875L14.4725 3.53125C14.492 3.52596 14.5127 3.52731 14.5313 3.53509C14.5499 3.54288 14.5654 3.55665 14.5753 3.57422C15.0323 4.37148 15.4346 5.3125 15.7471 6.31641C15.151 6.28047 14.6178 6.37734 14.1581 6.60586C13.8256 6.77148 13.6151 6.96445 13.4292 7.13477C13.2561 7.29336 13.0924 7.44336 12.8315 7.57344C12.4213 7.77813 11.9331 7.85117 11.3807 7.79297C11.0846 6.69492 10.9112 5.59844 10.8799 4.60938ZM15.0987 13.973H15.1421C15.3267 13.9736 15.5094 13.9364 15.6792 13.8637L16.6733 17.325C16.478 17.3043 16.2822 17.3594 16.1264 17.4789L16.1081 17.4934L15.0987 13.973ZM14.8827 19.1867L16.4893 17.9445C16.5085 17.9302 16.5304 17.9197 16.5537 17.9138C16.5769 17.9079 16.6011 17.9067 16.6249 17.9102L17.0346 17.9758H17.0393L18.6327 18.2313L14.8827 19.1867Z" fill="black"/>
</g>
<defs>
<clipPath id="clip0_47_2162">
<rect width="20" height="20" fill="white"/>
</clipPath>
</defs>
</svg>
