<svg width="17" height="17" viewBox="0 0 17 17" fill="none" xmlns="http://www.w3.org/2000/svg">
<mask id="mask0_42_1820" style="mask-type:luminance" maskUnits="userSpaceOnUse" x="0" y="0" width="17" height="17">
<path d="M0 0H17V17H0V0Z" fill="white"/>
</mask>
<g mask="url(#mask0_42_1820)">
<path d="M10.318 8.42872L14.7393 4.00738C14.8675 3.88357 14.9697 3.73548 15.0401 3.57173C15.1104 3.40799 15.1474 3.23188 15.149 3.05368C15.1505 2.87547 15.1166 2.69874 15.0491 2.5338C14.9816 2.36887 14.882 2.21902 14.756 2.093C14.6299 1.96699 14.4801 1.86733 14.3152 1.79985C14.1502 1.73237 13.9735 1.69841 13.7953 1.69996C13.6171 1.70151 13.441 1.73853 13.2772 1.80887C13.1135 1.87921 12.9654 1.98145 12.8416 2.10964L8.42024 6.53098L3.9989 2.10964C3.87463 1.98336 3.72659 1.88294 3.56332 1.81416C3.40005 1.74538 3.22477 1.70961 3.04761 1.70891C2.87044 1.70821 2.69489 1.74259 2.53108 1.81008C2.36727 1.87756 2.21844 1.97681 2.09318 2.1021C1.96792 2.2274 1.8687 2.37625 1.80125 2.54007C1.73381 2.7039 1.69946 2.87946 1.70021 3.05663C1.70095 3.23379 1.73676 3.40906 1.80558 3.57231C1.87439 3.73557 1.97485 3.88359 2.10116 4.00782L6.5225 8.42872L2.09042 12.8608C1.84215 13.1132 1.70367 13.4535 1.70515 13.8076C1.70663 14.1616 1.84796 14.5007 2.09834 14.7511C2.34873 15.0014 2.68788 15.1426 3.04194 15.144C3.39599 15.1454 3.73625 15.0069 3.98861 14.7585L8.42024 10.3269L12.8416 14.7478C12.9661 14.8725 13.114 14.9714 13.2768 15.0388C13.4397 15.1062 13.6142 15.1408 13.7905 15.1406C14.0559 15.1405 14.3153 15.0618 14.5359 14.9143C14.7566 14.7668 14.9286 14.5572 15.0301 14.312C15.1317 14.0668 15.1583 13.797 15.1065 13.5367C15.0547 13.2764 14.927 13.0373 14.7393 12.8496L10.318 8.42872Z" fill="black"/>
</g>
</svg>
