<svg width="20" height="20" viewBox="0 0 20 20" fill="none" xmlns="http://www.w3.org/2000/svg">
<path d="M15.0001 15C15.0001 14.8065 14.9294 14.6391 14.788 14.4978C14.6466 14.3564 14.4792 14.2857 14.2858 14.2857C14.0923 14.2857 13.9249 14.3564 13.7836 14.4978C13.6422 14.6391 13.5715 14.8065 13.5715 15C13.5715 15.1935 13.6422 15.3609 13.7836 15.5022C13.9249 15.6436 14.0923 15.7143 14.2858 15.7143C14.4792 15.7143 14.6466 15.6436 14.788 15.5022C14.9294 15.3609 15.0001 15.1935 15.0001 15ZM17.8572 15C17.8572 14.8065 17.7865 14.6391 17.6452 14.4978C17.5038 14.3564 17.3364 14.2857 17.1429 14.2857C16.9495 14.2857 16.7821 14.3564 16.6407 14.4978C16.4993 14.6391 16.4286 14.8065 16.4286 15C16.4286 15.1935 16.4993 15.3609 16.6407 15.5022C16.7821 15.6436 16.9495 15.7143 17.1429 15.7143C17.3364 15.7143 17.5038 15.6436 17.6452 15.5022C17.7865 15.3609 17.8572 15.1935 17.8572 15ZM19.2858 12.5V16.0714C19.2858 16.369 19.1816 16.622 18.9733 16.8304C18.765 17.0387 18.512 17.1429 18.2144 17.1429H1.78578C1.48817 17.1429 1.23519 17.0387 1.02686 16.8304C0.818522 16.622 0.714355 16.369 0.714355 16.0714V12.5C0.714355 12.2024 0.818522 11.9494 1.02686 11.7411C1.23519 11.5327 1.48817 11.4286 1.78578 11.4286H6.97552L8.48221 12.9464C8.91376 13.3631 9.41971 13.5714 10.0001 13.5714C10.5804 13.5714 11.0864 13.3631 11.5179 12.9464L13.0358 11.4286H18.2144C18.512 11.4286 18.765 11.5327 18.9733 11.7411C19.1816 11.9494 19.2858 12.2024 19.2858 12.5ZM15.6586 6.14955C15.785 6.45461 15.733 6.71503 15.5023 6.9308L10.5023 11.9308C10.3684 12.0722 10.201 12.1429 10.0001 12.1429C9.79918 12.1429 9.63177 12.0722 9.49784 11.9308L4.49784 6.9308C4.26718 6.71503 4.2151 6.45461 4.34159 6.14955C4.46808 5.85937 4.68757 5.71429 5.00007 5.71429H7.85721V0.714286C7.85721 0.520833 7.9279 0.353423 8.06927 0.212054C8.21064 0.0706845 8.37805 0 8.5715 0H11.4286C11.6221 0 11.7895 0.0706845 11.9309 0.212054C12.0722 0.353423 12.1429 0.520833 12.1429 0.714286V5.71429H15.0001C15.3126 5.71429 15.5321 5.85937 15.6586 6.14955Z" fill="#DC202F"/>
</svg>
