<svg width="16" height="19" viewBox="0 0 16 19" fill="none" xmlns="http://www.w3.org/2000/svg">
<path d="M14.2538 6.81494H4.99676V4.14307C4.99614 3.79554 4.89285 3.45928 4.7049 3.19289C4.51695 2.9265 4.25626 2.74686 3.96823 2.68526C3.91696 2.4248 3.79313 2.19252 3.61682 2.02605C3.4405 1.85958 3.22202 1.76868 2.99676 1.76807H1.49676C1.2331 1.77087 0.981032 1.89722 0.795421 2.11961C0.609809 2.34201 0.505674 2.64246 0.505676 2.95558C0.505678 3.26869 0.609817 3.56914 0.795431 3.79153C0.981045 4.01393 1.23311 4.14027 1.49678 4.14307H2.99676C3.21203 4.14219 3.4213 4.05869 3.59333 3.90501C3.76536 3.75134 3.89095 3.53574 3.95134 3.29037C4.10793 3.34282 4.24586 3.45442 4.34427 3.60828C4.44269 3.76213 4.49622 3.94986 4.49676 4.14307V12.7524C4.49626 13.261 4.653 13.7521 4.93723 14.1326C5.22146 14.513 5.61341 14.7563 6.0387 14.8163C5.27702 15.7228 5.55809 17.3414 6.77367 17.1612C7.62353 17.0208 8.38747 15.8065 7.99336 14.8306H11.964C11.1769 15.7035 11.4334 17.415 12.6694 17.2157C13.5798 17.0791 14.3973 15.6401 13.7849 14.6908C14.0693 14.5593 14.3195 14.3413 14.5105 14.0587C14.7014 13.7761 14.8264 13.4388 14.8729 13.0806L15.481 8.53355C15.5086 8.32236 15.4975 8.10661 15.4487 7.90093C15.3998 7.69525 15.3143 7.50444 15.1979 7.34144C15.0816 7.17844 14.937 7.04707 14.7741 6.95623C14.6112 6.86539 14.4338 6.8172 14.2538 6.81494ZM2.99676 3.54932H1.49676C1.36416 3.54932 1.23698 3.48676 1.14321 3.37541C1.04944 3.26406 0.996764 3.11304 0.996764 2.95557C0.996764 2.79809 1.04944 2.64707 1.14321 2.53572C1.23698 2.42437 1.36416 2.36182 1.49676 2.36182H2.99676C3.12839 2.3636 3.25411 2.42694 3.34665 2.53809C3.43919 2.64925 3.4911 2.79926 3.4911 2.95557C3.4911 3.11188 3.43919 3.26188 3.34665 3.37304C3.25411 3.48419 3.12839 3.54753 2.99676 3.54932ZM6.69842 16.5744C6.61985 16.5995 6.53714 16.6 6.45835 16.5759C6.37957 16.5517 6.30738 16.5038 6.24881 16.4367C6.19024 16.3697 6.14729 16.2857 6.12413 16.1931C6.10097 16.1005 6.09839 16.0023 6.11664 15.9082C6.15514 15.6518 6.25481 15.414 6.4038 15.223C6.5528 15.032 6.74484 14.8958 6.95712 14.8306H7.28287C7.39475 14.8712 7.48937 14.961 7.54745 15.0816C7.60554 15.2022 7.62273 15.3446 7.59551 15.4797C7.55598 15.7481 7.44924 15.9961 7.28921 16.1914C7.12918 16.3867 6.9233 16.5202 6.69842 16.5744ZM13.4913 15.5339C13.4517 15.8024 13.3449 16.0504 13.1849 16.2457C13.0249 16.4411 12.819 16.5746 12.5941 16.6289C12.5155 16.654 12.4328 16.6545 12.3541 16.6304C12.2753 16.6063 12.2031 16.5584 12.1446 16.4913C12.086 16.4243 12.0431 16.3404 12.0199 16.2478C11.9968 16.1552 11.9942 16.0571 12.0124 15.963C12.0519 15.6945 12.1586 15.4464 12.3186 15.251C12.4786 15.0557 12.6846 14.9222 12.9095 14.868C12.988 14.8436 13.0704 14.8436 13.1489 14.8679C13.2274 14.8923 13.2993 14.9402 13.3577 15.0071C13.4161 15.0739 13.4591 15.1575 13.4825 15.2498C13.5059 15.342 13.5089 15.4399 13.4913 15.5339ZM14.9871 8.44021L14.379 12.9873C14.3348 13.335 14.187 13.6523 13.9625 13.8816C13.738 14.1109 13.4517 14.2369 13.1556 14.2368C12.3824 14.2422 6.85592 14.2279 6.23578 14.2368C5.90583 14.2346 5.59009 14.0771 5.35782 13.7988C5.12554 13.5206 4.9957 13.1443 4.99678 12.7524V7.40869H14.2538C14.3616 7.41036 14.4679 7.43953 14.5653 7.49421C14.6628 7.5489 14.7493 7.62783 14.8188 7.72565C14.8883 7.82347 14.9394 7.93791 14.9684 8.06119C14.9974 8.18448 15.0038 8.31374 14.9871 8.44021Z" fill="#F92D2D"/>
<path d="M3.9968 8.29932C4.06246 8.29816 4.1251 8.26637 4.17119 8.21082C4.21728 8.15528 4.24312 8.08042 4.24312 8.00244C4.24312 7.92446 4.21728 7.84961 4.17119 7.79406C4.1251 7.73851 4.06246 7.70672 3.9968 7.70557H1.4968C1.43114 7.70673 1.3685 7.73851 1.32241 7.79407C1.27632 7.84962 1.25049 7.92447 1.25049 8.00245C1.25049 8.08043 1.27633 8.15528 1.32242 8.21083C1.36851 8.26638 1.43115 8.29816 1.49682 8.29932H3.9968ZM3.9968 10.0806H1.9968C1.93111 10.0817 1.86842 10.1134 1.8223 10.169C1.77617 10.2246 1.75032 10.2994 1.75032 10.3774C1.75032 10.4555 1.77618 10.5303 1.82231 10.5859C1.86844 10.6415 1.93112 10.6732 1.99682 10.6743H3.9968C4.06249 10.6732 4.12518 10.6415 4.1713 10.5859C4.21743 10.5303 4.24329 10.4555 4.24329 10.3774C4.24329 10.2994 4.21743 10.2245 4.1713 10.169C4.12518 10.1134 4.06249 10.0817 3.9968 10.0806ZM3.9968 12.4556H0.7468C0.681138 12.4567 0.618496 12.4885 0.572408 12.5441C0.52632 12.5996 0.500486 12.6745 0.500488 12.7524C0.50049 12.8304 0.526328 12.9053 0.572419 12.9608C0.61851 13.0164 0.681153 13.0482 0.746815 13.0493H3.9968C4.06246 13.0482 4.1251 13.0164 4.17119 12.9608C4.21728 12.9053 4.24312 12.8304 4.24312 12.7524C4.24312 12.6745 4.21728 12.5996 4.17119 12.5441C4.1251 12.4885 4.06246 12.4567 3.9968 12.4556ZM11.7959 9.78948L10.8937 9.57523L11.4612 8.45209C11.4839 8.40705 11.4962 8.35563 11.4968 8.30309C11.4974 8.25054 11.4862 8.19877 11.4644 8.15304C11.4426 8.10731 11.411 8.06927 11.3727 8.04281C11.3345 8.01635 11.291 8.00242 11.2468 8.00243H9.4968C9.4544 8.00246 9.41271 8.01526 9.37562 8.03965C9.33853 8.06405 9.30727 8.09922 9.28476 8.14188L8.03476 10.5169C8.01114 10.5618 7.99807 10.6135 7.99691 10.6664C7.99576 10.7194 8.00655 10.7718 8.02818 10.8181C8.04982 10.8645 8.08149 10.9031 8.11993 10.93C8.15837 10.9569 8.20217 10.9711 8.2468 10.9712H9.32187L8.27829 13.2021C8.24989 13.2628 8.24033 13.3335 8.25127 13.4017C8.2622 13.4699 8.29294 13.5315 8.33814 13.5756C8.38334 13.6197 8.44013 13.6436 8.49863 13.6431C8.55712 13.6426 8.61362 13.6177 8.65829 13.5729L11.9083 10.3073C11.9435 10.2708 11.9695 10.2234 11.9834 10.1704C11.9972 10.1174 11.9984 10.0609 11.9867 10.0072C11.9751 9.95341 11.951 9.90459 11.9173 9.86614C11.8836 9.8277 11.8416 9.80116 11.7959 9.78948ZM9.37986 12.07L9.96531 10.8184C9.98592 10.7731 9.99633 10.7223 9.99554 10.6709C9.99476 10.6194 9.9828 10.5691 9.96082 10.5247C9.93884 10.4804 9.9076 10.4435 9.8701 10.4177C9.83261 10.3919 9.79014 10.378 9.74681 10.3774H8.69786L9.63536 8.59618H10.8053L10.2824 9.6309C10.2622 9.67178 10.2505 9.71779 10.2482 9.76513C10.2459 9.81247 10.2531 9.85977 10.2693 9.90314C10.2854 9.9465 10.31 9.98468 10.3411 10.0145C10.3721 10.0444 10.4086 10.065 10.4477 10.0748L11.19 10.251L9.37986 12.07Z" fill="#F92D2D"/>
</svg>
