<svg width="16" height="20" viewBox="0 0 16 20" fill="none" xmlns="http://www.w3.org/2000/svg">
<path d="M14.08 7.7H12.1V5.06C12.1 1.8733 10.6315 0 7.7 0C4.7674 0 3.3 1.8733 3.3 5.06V7.7H1.1C0.4917 7.7 0 8.4106 0 9.0189V17.6C0 18.2039 0.4708 18.8529 1.0461 19.0377L2.3628 19.4634C3.06119 19.667 3.78282 19.7801 4.51 19.8H10.89C11.6169 19.7803 12.3382 19.6668 13.0361 19.4623L14.3517 19.0366C14.9281 18.8529 15.4 18.2039 15.4 17.6V9.0189C15.4 8.4106 14.6872 7.7 14.08 7.7ZM9.9 7.7H5.5V4.6189C5.5 3.0294 6.3767 2.2 7.7 2.2C9.0233 2.2 9.9 3.0294 9.9 4.6189V7.7Z" fill="#DC202F"/>
</svg>
