<svg width="250" height="250" viewBox="0 0 250 250" fill="none" xmlns="http://www.w3.org/2000/svg">
<path d="M124.525 243.025C189.587 243.025 242.33 212.574 242.33 175.01C242.33 137.446 189.587 106.995 124.525 106.995C59.4631 106.995 6.72 137.446 6.72 175.01C6.72 212.574 59.4631 243.025 124.525 243.025Z" fill="#F0F0F0"/>
<path d="M192.18 198.61C184.455 194.15 184.455 186.92 192.18 182.46C199.905 178 212.43 178 220.155 182.46C227.88 186.92 227.88 194.15 220.155 198.61C212.43 203.07 199.905 203.07 192.18 198.61Z" fill="#E0E0E0"/>
<path d="M35.06 199.23L14.74 187.5C13.595 186.84 13.595 185.765 14.74 185.105L132.935 116.865C133.577 116.539 134.287 116.37 135.008 116.37C135.728 116.37 136.438 116.539 137.08 116.865L157.405 128.595C158.55 129.255 158.55 130.33 157.405 130.99L39.21 199.23C38.5668 199.556 37.8559 199.725 37.135 199.725C36.4141 199.725 35.7032 199.556 35.06 199.23Z" fill="#E0E0E0"/>
<path d="M108.1 178.32L125.57 168.22C127.37 167.18 128.27 165.82 128.27 164.455C128.27 163.09 128.27 162.025 128.27 162.025L110.15 151.805C109.644 151.478 109.222 151.035 108.92 150.514C108.618 149.992 108.443 149.407 108.41 148.805V127.26L77.91 144.89V166.425C77.9451 167.026 78.1209 167.611 78.4231 168.132C78.7253 168.653 79.1455 169.096 79.65 169.425L95.07 178.305C98.66 180.4 104.5 180.4 108.1 178.32Z" fill="#BA68C8"/>
<g opacity="0.6">
<path d="M108.1 178.32L125.57 168.22C127.37 167.18 128.27 165.82 128.27 164.455C128.27 163.09 128.27 162.025 128.27 162.025L110.15 151.805C109.644 151.478 109.222 151.035 108.92 150.514C108.618 149.992 108.443 149.407 108.41 148.805V127.26L77.91 144.89V166.425C77.9451 167.026 78.1209 167.611 78.4231 168.132C78.7253 168.653 79.1455 169.096 79.65 169.425L95.07 178.305C98.66 180.4 104.5 180.4 108.1 178.32Z" fill="black"/>
</g>
<path opacity="0.3" d="M85.225 170.24V172.66L79.635 169.435C79.1306 169.106 78.7107 168.663 78.4093 168.142C78.1079 167.621 77.9334 167.036 77.9 166.435V144.89L83.71 141.535C83.83 143.01 83.96 144.535 84.085 146.035L80 148.385V165.21C80.0324 165.812 80.2069 166.398 80.5094 166.919C80.8118 167.441 81.2336 167.883 81.74 168.21L85.225 170.24Z" fill="black"/>
<path d="M80 165.215C80.0344 165.817 80.2098 166.401 80.512 166.923C80.8143 167.444 81.235 167.887 81.74 168.215L95.05 175.885C98.65 177.96 104.49 177.965 108.095 175.885L125.595 165.785C129.2 163.705 129.2 160.335 125.595 158.255L112.275 150.585C111.771 150.256 111.352 149.813 111.05 149.292C110.749 148.771 110.574 148.186 110.54 147.585V130.755L80.04 148.385L80 165.215Z" fill="#BA68C8"/>
<path opacity="0.3" d="M80 165.215C80.0344 165.817 80.2098 166.401 80.512 166.923C80.8143 167.444 81.235 167.887 81.74 168.215L95.05 175.885C98.65 177.96 104.49 177.965 108.095 175.885L125.595 165.785C129.2 163.705 129.2 160.335 125.595 158.255L112.275 150.585C111.771 150.256 111.352 149.813 111.05 149.292C110.749 148.771 110.574 148.186 110.54 147.585V130.755L80.04 148.385L80 165.215Z" fill="black"/>
<path opacity="0.5" d="M115.8 152.64L112.255 150.595C111.751 150.266 111.332 149.823 111.03 149.302C110.729 148.781 110.554 148.196 110.52 147.595V130.755L80.02 148.385V165.215C80.0544 165.817 80.2298 166.401 80.532 166.923C80.8343 167.444 81.255 167.887 81.76 168.215L85.26 170.215L115.8 152.64Z" fill="black"/>
<path d="M128.275 162.03V164.46C128.275 165.825 127.37 167.18 125.575 168.225L108.075 178.32C106.16 179.342 104.021 179.873 101.85 179.865V177.445C104.021 177.453 106.16 176.922 108.075 175.9L125.575 165.795C127.37 164.76 128.275 163.395 128.275 162.03Z" fill="#BA68C8"/>
<path opacity="0.5" d="M128.275 162.03V164.46C128.275 165.825 127.37 167.18 125.575 168.225L108.075 178.32C106.16 179.342 104.021 179.873 101.85 179.865V177.445C104.021 177.453 106.16 176.922 108.075 175.9L125.575 165.795C127.37 164.76 128.275 163.395 128.275 162.03Z" fill="black"/>
<path d="M31 186.13C31.6594 186.448 32.3843 186.608 33.1164 186.595C33.8486 186.582 34.5674 186.397 35.215 186.055L153.215 117.93C153.848 117.517 154.374 116.961 154.752 116.307C155.13 115.653 155.349 114.919 155.39 114.165V18.705C155.367 17.9712 155.172 17.2531 154.819 16.6092C154.466 15.9654 153.966 15.414 153.36 15C152.701 14.6812 151.977 14.5223 151.245 14.5362C150.514 14.5501 149.796 14.7364 149.15 15.08L31.15 83.225C30.5195 83.6403 29.9961 84.1987 29.6224 84.8547C29.2488 85.5108 29.0355 86.2459 29 87V182.445C29.0223 183.173 29.2148 183.885 29.5622 184.525C29.9095 185.165 30.4019 185.715 31 186.13Z" fill="#BA68C8"/>
<path d="M35.23 186.05L153.23 117.925C153.864 117.513 154.391 116.958 154.769 116.303C155.147 115.649 155.365 114.915 155.405 114.16V18.705C155.405 17.32 154.43 16.755 153.23 17.45L35.23 85.575C34.597 85.9874 34.0702 86.5432 33.6923 87.1974C33.3144 87.8516 33.096 88.5856 33.055 89.34V184.795C33.055 186.18 34.03 186.745 35.23 186.05Z" fill="#BA68C8"/>
<path opacity="0.5" d="M35.23 186.05L153.23 117.925C153.864 117.513 154.391 116.958 154.769 116.303C155.147 115.649 155.365 114.915 155.405 114.16V18.705C155.405 17.32 154.43 16.755 153.23 17.45L35.23 85.575C34.597 85.9874 34.0702 86.5432 33.6923 87.1974C33.3144 87.8516 33.096 88.5856 33.055 89.34V184.795C33.055 186.18 34.03 186.745 35.23 186.05Z" fill="black"/>
<path d="M34.91 188.53C34.2912 188.8 33.6212 188.933 32.9462 188.919C32.2712 188.905 31.6072 188.745 31 188.45C30.4006 188.034 29.9073 187.482 29.5599 186.841C29.2126 186.199 29.0208 185.484 29 184.755V176.065L33.075 178.425V187.115C33.05 188.38 33.855 188.955 34.91 188.53Z" fill="#BA68C8"/>
<path opacity="0.5" d="M34.91 188.53C34.2912 188.8 33.6212 188.933 32.9462 188.919C32.2712 188.905 31.6072 188.745 31 188.45C30.4006 188.034 29.9073 187.482 29.5599 186.841C29.2126 186.199 29.0208 185.484 29 184.755V176.065L33.075 178.425V187.115C33.05 188.38 33.855 188.955 34.91 188.53Z" fill="black"/>
<path d="M33.05 178.425V187.115C33.05 188.5 34.05 189.06 35.225 188.37L153.225 120.245C153.855 119.834 154.38 119.282 154.758 118.631C155.136 117.981 155.355 117.251 155.4 116.5V107.77L33.05 178.425Z" fill="#BA68C8"/>
<path opacity="0.3" d="M33.055 178.405V187.115C33.055 188.5 34.055 189.06 35.23 188.37L153.23 120.245C153.859 119.834 154.383 119.281 154.76 118.63C155.137 117.98 155.356 117.25 155.4 116.5V107.77L33.055 178.405Z" fill="black"/>
<path d="M37.13 167.5V90.695C37.1533 90.2425 37.2832 89.8019 37.5091 89.4092C37.735 89.0164 38.0506 88.6826 38.43 88.435L150 24C150.72 23.585 151.305 23.92 151.305 24.75V101.595C151.281 102.048 151.15 102.489 150.923 102.881C150.696 103.274 150.38 103.608 150 103.855L38.435 168.275C37.715 168.69 37.13 168.35 37.13 167.5Z" fill="#BA68C8"/>
<path d="M37.13 167.5V90.695C37.1533 90.2425 37.2832 89.8019 37.5091 89.4092C37.735 89.0164 38.0506 88.6826 38.43 88.435L150 24C150.72 23.585 151.305 23.92 151.305 24.75V101.595C151.281 102.048 151.15 102.489 150.923 102.881C150.696 103.274 150.38 103.608 150 103.855L38.435 168.275C37.715 168.69 37.13 168.35 37.13 167.5Z" fill="#263238"/>
<path d="M94.225 145.865C93.6311 146.251 93.1368 146.772 92.7823 147.386C92.4278 147.999 92.2231 148.688 92.185 149.395C92.185 150.695 93.1 151.225 94.225 150.575C94.8196 150.188 95.3143 149.666 95.6688 149.052C96.0233 148.438 96.2276 147.748 96.265 147.04C96.265 145.74 95.35 145.215 94.225 145.865Z" fill="#BA68C8"/>
<path opacity="0.7" d="M33.695 87.19C33.3075 87.8414 33.086 88.578 33.05 89.335V178.425L29 176.065V87C29.0262 86.2404 29.2466 85.5003 29.64 84.85L33.695 87.19Z" fill="black"/>
<path opacity="0.3" d="M155.38 18.345C155.225 17.225 154.32 16.845 153.225 17.45L35.225 85.575C34.5852 85.9751 34.0571 86.5307 33.69 87.19L29.61 84.835C29.9796 84.1759 30.5092 83.6205 31.15 83.22L149.15 15.1C149.797 14.7563 150.516 14.57 151.248 14.5561C151.98 14.5422 152.706 14.7011 153.365 15.02C153.919 15.3977 154.386 15.89 154.734 16.4636C155.081 17.0372 155.302 17.6788 155.38 18.345Z" fill="black"/>
<path d="M161.745 30.095C161.57 30.007 161.374 29.9685 161.178 29.9835C160.983 29.9984 160.795 30.0664 160.635 30.18L49.295 94.5C48.8557 94.7906 48.4909 95.1806 48.2303 95.6384C47.9698 96.0962 47.8206 96.6089 47.795 97.135V173.47C47.7794 173.728 47.8306 173.985 47.9436 174.217C48.0566 174.449 48.2275 174.648 48.44 174.795C48.685 174.93 49.995 175.69 50.385 175.9C50.523 175.97 50.6771 176.003 50.8318 175.994C50.9864 175.985 51.1359 175.935 51.265 175.85L162.58 111.53C163.019 111.239 163.384 110.849 163.645 110.392C163.905 109.934 164.054 109.421 164.08 108.895V32.165C164.102 31.9711 164.07 31.7748 163.987 31.5982C163.904 31.4215 163.774 31.2715 163.61 31.165C163.36 31 162.025 30.26 161.745 30.095Z" fill="#BA68C8"/>
<path d="M51.24 95.58L162.585 31.285C163.425 30.785 164.085 31.195 164.085 32.165V108.895C164.059 109.421 163.91 109.934 163.65 110.392C163.389 110.849 163.024 111.239 162.585 111.53L51.24 175.85C50.4 176.35 49.74 175.545 49.74 174.575V98.215C49.7664 97.689 49.9159 97.1766 50.1764 96.719C50.4369 96.2613 50.8012 95.8712 51.24 95.58Z" fill="#FAFAFA"/>
<path d="M163.265 31.575C163.56 31.575 163.605 31.945 163.605 32.165V108.895C163.578 109.336 163.449 109.764 163.227 110.146C163.006 110.528 162.699 110.853 162.33 111.095L51 175.415C50.9253 175.463 50.839 175.491 50.75 175.495C50.47 175.495 50.25 175.065 50.25 174.575V98.215C50.2741 97.7746 50.3995 97.3456 50.6162 96.9615C50.833 96.5773 51.1354 96.2483 51.5 96L162.835 31.715C162.964 31.6319 163.112 31.5836 163.265 31.575ZM163.265 31.075C163.024 31.0853 162.79 31.1576 162.585 31.285L51.24 95.58C50.8012 95.8712 50.4369 96.2613 50.1764 96.719C49.9159 97.1766 49.7664 97.689 49.74 98.215V174.575C49.74 175.345 50.17 175.995 50.74 175.995C50.9166 175.992 51.0891 175.942 51.24 175.85L162.58 111.53C163.019 111.239 163.384 110.849 163.645 110.392C163.905 109.934 164.054 109.421 164.08 108.895V32.165C164.08 31.475 163.74 31.075 163.24 31.075H163.265Z" fill="#E0E0E0"/>
<path d="M48.41 174.795C48.575 174.88 49.76 175.555 50.28 175.855C50.0933 175.7 49.9454 175.504 49.8482 175.281C49.7509 175.059 49.707 174.817 49.72 174.575V103.2L47.77 102.06V173.47C47.7539 173.727 47.8043 173.984 47.9164 174.216C48.0285 174.448 48.1985 174.648 48.41 174.795Z" fill="#F0F0F0"/>
<path d="M164.105 32.15C164.105 31.19 163.42 30.8 162.605 31.285L51.24 95.58C50.8012 95.8712 50.4369 96.2613 50.1764 96.719C49.9159 97.1766 49.7664 97.689 49.74 98.215V103.215L164.105 37.15V32.15Z" fill="#BA68C8"/>
<g opacity="0.4">
<path d="M162.585 31.285L51.24 95.575C50.7931 95.8568 50.425 96.2473 50.17 96.71L48.235 95.585C48.4896 95.1385 48.8546 94.7649 49.295 94.5L160.635 30.18C160.794 30.0656 160.982 29.9968 161.178 29.9809C161.373 29.965 161.569 30.0028 161.745 30.09C162.015 30.26 163.28 30.975 163.605 31.15C163.437 31.0877 163.256 31.0674 163.078 31.0909C162.9 31.1144 162.731 31.1811 162.585 31.285Z" fill="white"/>
</g>
<path opacity="0.15" d="M47.77 102.065V97.11C47.7905 96.57 47.9508 96.0446 48.235 95.585L50.175 96.705C49.8948 97.1566 49.7379 97.6738 49.72 98.205V103.205L47.77 102.065Z" fill="black"/>
<path d="M140.625 89.71L73.94 128.21C73.6157 128.42 73.3457 128.704 73.1519 129.039C72.9582 129.373 72.8462 129.749 72.825 130.135V149.255C72.8462 149.641 72.9582 150.017 73.1519 150.351C73.3457 150.686 73.6157 150.97 73.94 151.18L75.885 152.3C76.2307 152.475 76.6126 152.566 77 152.566C77.3874 152.566 77.7693 152.475 78.115 152.3L144.79 113.8C145.114 113.588 145.384 113.304 145.578 112.968C145.772 112.633 145.884 112.257 145.905 111.87V92.745C145.884 92.359 145.772 91.9835 145.578 91.649C145.384 91.3144 145.114 91.0304 144.79 90.82L142.84 89.7C142.496 89.528 142.116 89.4393 141.731 89.441C141.347 89.4427 140.968 89.5349 140.625 89.71Z" fill="#BA68C8"/>
<path opacity="0.5" d="M145.905 92.575C145.825 92 145.36 91.79 144.8 92.115L78.115 130.615C77.7861 130.819 77.5157 131.105 77.33 131.445L73.155 129.035C73.3421 128.701 73.6104 128.419 73.935 128.215L140.625 89.715C140.97 89.5398 141.351 89.4485 141.738 89.4485C142.124 89.4485 142.505 89.5398 142.85 89.715L144.8 90.835C145.097 91.0298 145.35 91.2858 145.54 91.5858C145.731 91.8859 145.855 92.2231 145.905 92.575Z" fill="white"/>
<path d="M77.925 152.395C77.5985 152.524 77.2485 152.582 76.8979 152.567C76.5473 152.551 76.2039 152.462 75.89 152.305L73.94 151.185C73.6163 150.974 73.3467 150.69 73.153 150.355C72.9593 150.021 72.847 149.646 72.825 149.26V130.14C72.84 129.75 72.9535 129.37 73.155 129.035L77.33 131.445C77.1271 131.775 77.0134 132.153 77 132.54V151.665C77 152.3 77.4 152.595 77.925 152.395Z" fill="#263238"/>
<path d="M78.115 130.615L144.8 92.115C145.415 91.76 145.915 92.045 145.915 92.755V111.88C145.894 112.267 145.782 112.643 145.588 112.978C145.394 113.314 145.124 113.598 144.8 113.81L78.125 152.31C77.51 152.665 77.01 152.375 77.01 151.665V132.545C77.0301 132.159 77.1405 131.784 77.3325 131.448C77.5244 131.113 77.7925 130.828 78.115 130.615Z" fill="#BA68C8"/>
<path d="M122.945 99.92L73.945 128.215C73.6204 128.419 73.3521 128.701 73.165 129.035L77.34 131.445C77.5257 131.105 77.7961 130.819 78.125 130.615L127.125 102.325L122.945 99.92Z" fill="#455A64"/>
<path d="M127.115 102.325L78.115 130.615C77.7906 130.827 77.5206 131.111 77.3269 131.447C77.1332 131.782 77.0212 132.158 77 132.545V151.66C77 152.37 77.5 152.66 78.115 152.305L127.115 124.015V102.325Z" fill="#37474F"/>
<path d="M89.415 128.285L114.7 113.69C115.745 113.085 116.595 113.515 116.595 114.65C116.548 115.287 116.352 115.905 116.022 116.452C115.692 117 115.237 117.461 114.695 117.8L89.415 132.4C88.37 133.005 87.515 132.575 87.515 131.44C87.5622 130.802 87.7587 130.184 88.0888 129.636C88.4188 129.088 88.8731 128.625 89.415 128.285Z" fill="#BA68C8"/>
<path d="M94.595 133.12C94.5997 133.115 94.6055 133.11 94.6119 133.107C94.6184 133.105 94.6254 133.103 94.6325 133.103C94.6396 133.103 94.6466 133.105 94.6531 133.107C94.6595 133.11 94.6653 133.115 94.67 133.12C94.6924 133.154 94.7029 133.194 94.7 133.235V136.08C94.7003 136.355 94.6769 136.629 94.63 136.9C94.5887 137.147 94.5182 137.389 94.42 137.62C94.3304 137.831 94.2127 138.03 94.07 138.21C93.9294 138.377 93.76 138.517 93.57 138.625C93.4212 138.722 93.2476 138.774 93.07 138.775C93.0021 138.77 92.9361 138.75 92.8759 138.719C92.8157 138.687 92.7627 138.643 92.72 138.59C92.6103 138.443 92.5382 138.271 92.51 138.09C92.4622 137.848 92.4404 137.602 92.445 137.355V134.505C92.4449 134.455 92.4551 134.406 92.475 134.36C92.4873 134.319 92.5139 134.283 92.55 134.26L92.865 134.075C92.8752 134.065 92.8886 134.06 92.9025 134.06C92.9164 134.06 92.9298 134.065 92.94 134.075C92.9631 134.109 92.9737 134.149 92.97 134.19V137C92.9662 137.155 92.9813 137.309 93.015 137.46C93.0288 137.557 93.0705 137.647 93.135 137.72C93.1575 137.747 93.1859 137.768 93.218 137.782C93.2502 137.796 93.2851 137.802 93.32 137.8C93.4055 137.794 93.4882 137.767 93.56 137.72C93.6489 137.667 93.7298 137.601 93.8 137.525C93.8781 137.435 93.9421 137.334 93.99 137.225C94.0464 137.097 94.0883 136.963 94.115 136.825C94.1442 136.66 94.1576 136.493 94.155 136.325V133.51C94.1566 133.46 94.1685 133.41 94.19 133.365C94.2023 133.324 94.2289 133.288 94.265 133.265L94.595 133.12Z" fill="#FAFAFA"/>
<path d="M96.555 135.81C96.5576 135.773 96.5489 135.737 96.53 135.705C96.5181 135.692 96.5033 135.682 96.4868 135.676C96.4702 135.67 96.4525 135.668 96.435 135.67C96.3736 135.662 96.3114 135.662 96.25 135.67L95.96 135.725C95.8664 135.748 95.7686 135.748 95.675 135.725C95.6016 135.701 95.5382 135.654 95.495 135.59C95.4461 135.509 95.4138 135.419 95.4 135.325C95.3512 135.057 95.3512 134.783 95.4 134.515C95.4375 134.361 95.4911 134.212 95.56 134.07C95.6285 133.928 95.7123 133.794 95.81 133.67C95.9046 133.552 96.0198 133.452 96.15 133.375C96.2551 133.311 96.3728 133.27 96.495 133.255C96.5837 133.246 96.673 133.265 96.75 133.31C96.8233 133.355 96.881 133.421 96.915 133.5C96.9553 133.593 96.9774 133.693 96.98 133.795C96.9852 133.845 96.9747 133.896 96.95 133.94C96.9377 133.981 96.9111 134.017 96.875 134.04L96.575 134.215C96.5613 134.223 96.5458 134.227 96.53 134.227C96.5142 134.227 96.4987 134.223 96.485 134.215L96.42 134.165C96.3941 134.145 96.3628 134.132 96.33 134.13C96.2657 134.137 96.204 134.159 96.15 134.195C96.0715 134.242 96.0021 134.303 95.945 134.375C95.8845 134.454 95.8527 134.551 95.855 134.65C95.8479 134.688 95.8479 134.727 95.855 134.765C95.8646 134.779 95.8772 134.791 95.8919 134.8C95.9066 134.808 95.923 134.813 95.94 134.815C95.9946 134.824 96.0504 134.824 96.105 134.815L96.385 134.765C96.62 134.72 96.78 134.765 96.885 134.895C96.9953 135.08 97.0459 135.295 97.03 135.51C97.0287 135.659 97.0085 135.806 96.97 135.95C96.9305 136.106 96.8734 136.257 96.8 136.4C96.7265 136.548 96.6341 136.686 96.525 136.81C96.4214 136.932 96.298 137.035 96.16 137.115C96.0501 137.185 95.9249 137.228 95.795 137.24C95.701 137.243 95.6083 137.217 95.53 137.165C95.4528 137.112 95.3935 137.037 95.36 136.95C95.3196 136.855 95.2992 136.753 95.3 136.65C95.2953 136.598 95.3057 136.546 95.33 136.5C95.3422 136.459 95.3688 136.423 95.405 136.4L95.705 136.225C95.745 136.225 95.775 136.2 95.795 136.225L95.86 136.295C95.8733 136.31 95.8894 136.322 95.9074 136.331C95.9255 136.339 95.945 136.344 95.965 136.345C96.0354 136.345 96.1039 136.323 96.16 136.28C96.2503 136.229 96.3314 136.163 96.4 136.085C96.434 136.044 96.4626 135.998 96.485 135.95C96.5203 135.91 96.5445 135.862 96.555 135.81Z" fill="#FAFAFA"/>
<path d="M97.575 134.455C97.5741 134.195 97.5958 133.936 97.64 133.68C97.6817 133.439 97.7471 133.203 97.835 132.975C97.9085 132.771 98.0094 132.577 98.135 132.4C98.2398 132.248 98.3762 132.12 98.535 132.025C98.6509 131.947 98.7923 131.917 98.93 131.94C99.0522 131.968 99.1593 132.041 99.23 132.145C99.3241 132.281 99.3904 132.434 99.425 132.595C99.473 132.805 99.4964 133.02 99.495 133.235V133.545C99.4966 133.597 99.4845 133.649 99.46 133.695C99.4478 133.736 99.4211 133.772 99.385 133.795L98.085 134.55C98.0819 134.638 98.0937 134.726 98.12 134.81C98.1394 134.867 98.174 134.917 98.22 134.955C98.261 134.988 98.3127 135.004 98.365 135C98.4254 134.993 98.4835 134.972 98.535 134.94C98.6106 134.899 98.6784 134.845 98.735 134.78C98.7862 134.722 98.8298 134.659 98.865 134.59C98.8864 134.55 98.9097 134.512 98.935 134.475C98.9565 134.45 98.9818 134.428 99.01 134.41L99.32 134.23C99.3306 134.221 99.3439 134.217 99.3575 134.217C99.3711 134.217 99.3844 134.221 99.395 134.23C99.4081 134.246 99.4176 134.264 99.4228 134.284C99.428 134.304 99.4287 134.325 99.425 134.345C99.4195 134.442 99.3993 134.539 99.365 134.63C99.3219 134.769 99.2649 134.903 99.195 135.03C99.1168 135.176 99.0229 135.314 98.915 135.44C98.8074 135.569 98.679 135.679 98.535 135.765C98.4169 135.842 98.2753 135.876 98.135 135.86C98.012 135.83 97.9048 135.755 97.835 135.65C97.7366 135.498 97.6702 135.328 97.64 135.15C97.5945 134.921 97.5728 134.688 97.575 134.455ZM98.535 132.86C98.4581 132.901 98.3915 132.959 98.34 133.03C98.2845 133.1 98.2391 133.177 98.205 133.26C98.17 133.343 98.1415 133.428 98.12 133.515C98.1024 133.594 98.0907 133.674 98.085 133.755L98.965 133.255C98.9599 133.186 98.9499 133.118 98.935 133.05C98.9273 132.99 98.9031 132.932 98.865 132.885C98.85 132.863 98.8308 132.845 98.8084 132.831C98.786 132.818 98.761 132.809 98.735 132.805C98.6639 132.799 98.593 132.818 98.535 132.86Z" fill="#FAFAFA"/>
<path d="M101.065 131.465C100.913 131.551 100.794 131.685 100.725 131.845C100.647 132.056 100.612 132.28 100.62 132.505V134.31C100.621 134.362 100.61 134.413 100.59 134.46C100.578 134.501 100.551 134.537 100.515 134.56L100.22 134.73C100.215 134.735 100.21 134.74 100.203 134.742C100.197 134.745 100.19 134.747 100.182 134.747C100.175 134.747 100.168 134.745 100.162 134.742C100.155 134.74 100.15 134.735 100.145 134.73C100.123 134.696 100.112 134.656 100.115 134.615V131.38C100.115 131.329 100.125 131.278 100.145 131.23C100.159 131.19 100.185 131.155 100.22 131.13L100.515 130.96C100.525 130.951 100.539 130.945 100.552 130.945C100.566 130.945 100.58 130.951 100.59 130.96C100.613 130.992 100.624 131.031 100.62 131.07V131.23C100.68 131.096 100.753 130.968 100.84 130.85C100.919 130.741 101.022 130.65 101.14 130.585L101.32 130.48C101.329 130.471 101.342 130.466 101.355 130.466C101.368 130.466 101.381 130.471 101.39 130.48C101.414 130.513 101.426 130.554 101.425 130.595V131.05C101.424 131.102 101.412 131.153 101.39 131.2C101.377 131.24 101.353 131.275 101.32 131.3L101.065 131.465Z" fill="#FAFAFA"/>
<path d="M104.795 131.225C104.8 131.22 104.805 131.215 104.812 131.212C104.818 131.21 104.825 131.208 104.833 131.208C104.84 131.208 104.847 131.21 104.853 131.212C104.86 131.215 104.865 131.22 104.87 131.225C104.892 131.259 104.903 131.299 104.9 131.34V131.84C104.9 131.891 104.89 131.942 104.87 131.99C104.853 132.027 104.827 132.06 104.795 132.085L103.085 133.085C103.075 133.094 103.061 133.1 103.048 133.1C103.034 133.1 103.02 133.094 103.01 133.085C102.988 133.053 102.977 133.014 102.98 132.975V128.475C102.98 128.424 102.99 128.373 103.01 128.325C103.024 128.286 103.05 128.253 103.085 128.23L103.4 128.045C103.41 128.036 103.424 128.03 103.438 128.03C103.451 128.03 103.465 128.036 103.475 128.045C103.497 128.077 103.508 128.116 103.505 128.155V131.96L104.795 131.225Z" fill="#FAFAFA"/>
<path d="M106.33 127.525C106.443 127.447 106.578 127.41 106.715 127.42C106.832 127.429 106.941 127.483 107.02 127.57C107.113 127.677 107.182 127.803 107.22 127.94C107.273 128.117 107.304 128.3 107.31 128.485C107.31 128.525 107.31 128.58 107.31 128.645V129.03C107.31 129.09 107.31 129.145 107.31 129.19C107.3 129.407 107.27 129.623 107.22 129.835C107.174 130.041 107.107 130.242 107.02 130.435C106.941 130.614 106.838 130.782 106.715 130.935C106.61 131.073 106.479 131.19 106.33 131.28C106.214 131.355 106.078 131.392 105.94 131.385C105.825 131.375 105.717 131.321 105.64 131.235C105.544 131.132 105.475 131.006 105.44 130.87C105.387 130.693 105.356 130.51 105.35 130.325C105.35 130.285 105.35 130.235 105.35 130.17V129.785C105.35 129.72 105.35 129.665 105.35 129.625C105.356 129.406 105.384 129.188 105.435 128.975C105.484 128.767 105.552 128.565 105.64 128.37C105.719 128.192 105.82 128.024 105.94 127.87C106.046 127.73 106.179 127.613 106.33 127.525ZM106.8 128.815C106.8 128.704 106.781 128.595 106.745 128.49C106.726 128.426 106.688 128.37 106.635 128.33C106.592 128.301 106.541 128.289 106.49 128.295C106.433 128.306 106.378 128.328 106.33 128.36C106.271 128.392 106.217 128.433 106.17 128.48C106.113 128.54 106.064 128.607 106.025 128.68C105.975 128.771 105.938 128.869 105.915 128.97C105.882 129.098 105.862 129.228 105.855 129.36C105.855 129.4 105.855 129.445 105.855 129.5V129.855C105.855 129.91 105.855 129.955 105.855 129.985C105.86 130.096 105.88 130.205 105.915 130.31C105.933 130.374 105.972 130.43 106.025 130.47C106.046 130.485 106.069 130.495 106.094 130.5C106.119 130.505 106.145 130.505 106.17 130.5C106.227 130.49 106.281 130.47 106.33 130.44C106.388 130.407 106.442 130.366 106.49 130.32C106.546 130.259 106.594 130.192 106.635 130.12C106.683 130.028 106.72 129.931 106.745 129.83C106.778 129.702 106.796 129.572 106.8 129.44C106.803 129.393 106.803 129.347 106.8 129.3V128.95C106.803 128.905 106.803 128.86 106.8 128.815Z" fill="#FAFAFA"/>
<path d="M108.84 130.45C108.904 130.411 108.961 130.362 109.01 130.305C109.07 130.234 109.122 130.157 109.165 130.075C109.215 129.975 109.253 129.869 109.28 129.76C109.311 129.637 109.326 129.511 109.325 129.385V129.13C109.325 129.18 109.275 129.24 109.24 129.31C109.206 129.383 109.166 129.453 109.12 129.52C109.068 129.59 109.011 129.657 108.95 129.72C108.887 129.786 108.815 129.841 108.735 129.885C108.684 129.92 108.626 129.944 108.565 129.956C108.504 129.968 108.441 129.968 108.38 129.955C108.269 129.92 108.173 129.848 108.11 129.75C108.028 129.621 107.969 129.479 107.935 129.33C107.892 129.141 107.869 128.949 107.865 128.755C107.865 128.69 107.865 128.61 107.865 128.515C107.865 128.42 107.865 128.34 107.865 128.27C107.871 128.05 107.895 127.831 107.935 127.615C107.976 127.402 108.035 127.193 108.11 126.99C108.181 126.814 108.271 126.646 108.38 126.49C108.472 126.352 108.593 126.236 108.735 126.15C108.801 126.11 108.874 126.081 108.95 126.065C109.006 126.055 109.064 126.055 109.12 126.065C109.164 126.077 109.205 126.1 109.24 126.13C109.272 126.154 109.301 126.183 109.325 126.215V126.055C109.325 126.004 109.335 125.953 109.355 125.905C109.369 125.866 109.395 125.833 109.43 125.81L109.725 125.635C109.735 125.626 109.749 125.62 109.762 125.62C109.776 125.62 109.79 125.626 109.8 125.635C109.824 125.668 109.836 125.709 109.835 125.75V129C109.848 129.487 109.758 129.971 109.57 130.42C109.422 130.773 109.167 131.071 108.84 131.27C108.728 131.339 108.601 131.379 108.47 131.385C108.366 131.391 108.263 131.365 108.175 131.31C108.09 131.247 108.022 131.165 107.975 131.07C107.926 130.956 107.899 130.834 107.895 130.71C107.89 130.658 107.901 130.606 107.925 130.56C107.937 130.519 107.964 130.483 108 130.46L108.265 130.31C108.271 130.303 108.278 130.298 108.287 130.295C108.295 130.291 108.304 130.289 108.312 130.289C108.321 130.289 108.33 130.291 108.338 130.295C108.347 130.298 108.354 130.303 108.36 130.31C108.385 130.336 108.406 130.364 108.425 130.395C108.455 130.449 108.506 130.488 108.565 130.505C108.625 130.55 108.715 130.5 108.84 130.45ZM108.37 128.025C108.37 128.158 108.37 128.288 108.37 128.415C108.356 128.615 108.412 128.813 108.53 128.975C108.574 129.013 108.631 129.034 108.69 129.034C108.749 129.034 108.806 129.013 108.85 128.975C108.995 128.881 109.108 128.745 109.175 128.585C109.266 128.376 109.317 128.152 109.325 127.925C109.325 127.85 109.325 127.76 109.325 127.655C109.325 127.55 109.325 127.46 109.325 127.395C109.335 127.216 109.282 127.039 109.175 126.895C109.131 126.854 109.073 126.832 109.012 126.832C108.952 126.832 108.894 126.854 108.85 126.895C108.708 126.989 108.596 127.123 108.53 127.28C108.427 127.515 108.373 127.768 108.37 128.025Z" fill="#FAFAFA"/>
<path d="M111 123.585C111.01 123.577 111.022 123.572 111.035 123.572C111.048 123.572 111.06 123.577 111.07 123.585C111.096 123.617 111.109 123.659 111.105 123.7V124.245C111.105 124.297 111.093 124.348 111.07 124.395C111.056 124.433 111.032 124.465 111 124.49L110.665 124.685C110.66 124.69 110.655 124.695 110.648 124.697C110.642 124.7 110.635 124.702 110.628 124.702C110.62 124.702 110.613 124.7 110.607 124.697C110.6 124.695 110.595 124.69 110.59 124.685C110.577 124.67 110.567 124.653 110.561 124.634C110.555 124.615 110.553 124.595 110.555 124.575V124.03C110.555 123.978 110.567 123.927 110.59 123.88C110.604 123.841 110.63 123.808 110.665 123.785L111 123.585ZM111.085 128.28C111.085 128.33 111.075 128.379 111.055 128.425C111.039 128.464 111.013 128.499 110.98 128.525L110.68 128.695C110.676 128.7 110.67 128.704 110.664 128.707C110.658 128.71 110.652 128.712 110.645 128.712C110.638 128.712 110.632 128.71 110.626 128.707C110.62 128.704 110.614 128.7 110.61 128.695C110.584 128.663 110.571 128.621 110.575 128.58V125.345C110.575 125.293 110.587 125.242 110.61 125.195C110.624 125.156 110.648 125.122 110.68 125.095L110.98 124.925C110.99 124.916 111.004 124.91 111.018 124.91C111.031 124.91 111.045 124.916 111.055 124.925C111.077 124.957 111.088 124.996 111.085 125.035V128.28Z" fill="#FAFAFA"/>
<path d="M113.715 126.755C113.715 126.806 113.705 126.857 113.685 126.905C113.671 126.944 113.645 126.977 113.61 127L113.31 127.175C113.301 127.184 113.288 127.189 113.275 127.189C113.262 127.189 113.249 127.184 113.24 127.175C113.214 127.143 113.201 127.101 113.205 127.06V125.3C113.22 125.092 113.183 124.884 113.095 124.695C113.025 124.57 112.915 124.55 112.76 124.64C112.605 124.744 112.491 124.897 112.435 125.075C112.352 125.311 112.311 125.56 112.315 125.81V127.575C112.315 127.626 112.305 127.677 112.285 127.725C112.273 127.766 112.246 127.802 112.21 127.825L111.915 127.995C111.91 128 111.905 128.005 111.898 128.008C111.892 128.01 111.885 128.012 111.878 128.012C111.87 128.012 111.863 128.01 111.857 128.008C111.85 128.005 111.845 128 111.84 127.995C111.817 127.963 111.806 127.924 111.81 127.885V124.65C111.809 124.598 111.82 124.547 111.84 124.5C111.852 124.459 111.879 124.423 111.915 124.4L112.21 124.23C112.215 124.225 112.22 124.22 112.227 124.217C112.233 124.215 112.24 124.213 112.248 124.213C112.255 124.213 112.262 124.215 112.268 124.217C112.275 124.22 112.28 124.225 112.285 124.23C112.307 124.264 112.318 124.304 112.315 124.345V124.5C112.381 124.348 112.461 124.202 112.555 124.065C112.637 123.939 112.749 123.834 112.88 123.76C112.994 123.677 113.135 123.641 113.275 123.66C113.33 123.674 113.382 123.699 113.427 123.735C113.472 123.77 113.509 123.814 113.535 123.865C113.608 124 113.655 124.148 113.675 124.3C113.702 124.499 113.715 124.699 113.715 124.9V126.755Z" fill="#FAFAFA"/>
<path d="M138.935 112.2L134.08 115L134.835 108.19C134.25 107.88 133.88 107.125 133.88 106.04C133.88 104.105 135.06 101.86 136.51 101.04C137.96 100.22 139.135 101.09 139.135 103.04C139.105 104.187 138.778 105.307 138.185 106.29L138.935 112.2Z" fill="#455A64"/>
<path d="M138.94 112.2L134.665 109.735L134.08 115.005L138.94 112.2Z" fill="#37474F"/>
<path d="M136.5 101.025C135.443 101.739 134.654 102.786 134.26 104L138.175 106.26C138.768 105.277 139.095 104.157 139.125 103.01C139.135 101.075 137.96 100.19 136.5 101.025Z" fill="#37474F"/>
<path d="M112.9 78.35C111.235 77.39 108.94 77.525 106.4 78.99C101.33 81.92 97.22 89.035 97.22 94.89C97.22 97.83 98.26 99.89 99.93 100.84L103.165 102.72C104.825 103.68 107.12 103.54 109.665 102.075C114.735 99.15 118.845 92.03 118.845 86.175C118.845 83.25 117.815 81.175 116.155 80.24" fill="#BA68C8"/>
<path d="M109.66 80.875C104.59 83.805 100.48 90.925 100.48 96.775C100.48 102.625 104.59 105.005 109.66 102.075C114.73 99.145 118.845 92.03 118.84 86.175C118.835 80.32 114.725 77.95 109.66 80.875Z" fill="#BA68C8"/>
<path d="M114.725 93.865V94.535C113.51 96.703 111.768 98.5294 109.66 99.845C107.685 100.98 105.9 101.105 104.59 100.38V99C104.657 97.5643 105.067 96.1654 105.786 94.9206C106.504 93.6758 107.51 92.6212 108.72 91.845L110.055 91.075C111.235 90.395 112.385 90.305 113.285 90.83C114.185 91.355 114.725 92.46 114.725 93.865Z" fill="#BA68C8"/>
<path opacity="0.4" d="M112.9 78.35L116.15 80.24C114.49 79.275 112.195 79.41 109.65 80.875C106.33 82.795 103.42 86.51 101.81 90.49L98.555 88.605C100.17 84.605 103.055 80.91 106.395 78.99C108.945 77.53 111.24 77.39 112.9 78.35Z" fill="white"/>
<path opacity="0.2" d="M103.05 102.645L99.935 100.84C98.265 99.89 97.225 97.84 97.225 94.89L100.48 96.78C100.5 99.63 101.46 101.66 103.05 102.645Z" fill="black"/>
<path opacity="0.1" d="M98.565 88.605L101.82 90.49C100.986 92.4825 100.538 94.6153 100.5 96.775L97.245 94.885C97.2851 92.7272 97.733 90.5964 98.565 88.605Z" fill="black"/>
<path d="M108.5 90.76C108.19 90.7634 107.884 90.684 107.615 90.53C107.29 90.3136 107.03 90.0135 106.862 89.6615C106.694 89.3094 106.624 88.9185 106.66 88.53C106.702 87.619 106.962 86.7315 107.418 85.9416C107.874 85.1517 108.512 84.4825 109.28 83.99C109.588 83.7439 109.964 83.5965 110.357 83.5672C110.751 83.5379 111.144 83.6279 111.485 83.8257C111.826 84.0234 112.1 84.3195 112.271 84.6753C112.441 85.0311 112.5 85.4301 112.44 85.82C112.397 86.7308 112.136 87.618 111.681 88.4078C111.225 89.1975 110.587 89.8669 109.82 90.36C109.423 90.6077 108.968 90.7458 108.5 90.76Z" fill="white"/>
<path d="M113.285 90.825C112.385 90.3 111.235 90.39 110.055 91.07L108.72 91.84C107.51 92.6167 106.503 93.6721 105.784 94.9178C105.066 96.1636 104.656 97.5634 104.59 99V100.385C105.9 101.11 107.685 100.985 109.66 99.85C111.768 98.5344 113.51 96.708 114.725 94.54V93.87C114.725 92.46 114.205 91.355 113.285 90.825Z" fill="white"/>
<path d="M216.075 177.325C216.075 177.325 216.74 171.485 219.645 166.95C222.55 162.415 226.54 159.59 230.265 159.295C233.99 159 237 162.43 233.015 164.795C229.03 167.16 221.95 169.55 218.69 178.35L216.075 177.325Z" fill="#BA68C8"/>
<path opacity="0.1" d="M216.075 177.325C216.075 177.325 216.74 171.485 219.645 166.95C222.55 162.415 226.54 159.59 230.265 159.295C233.99 159 237 162.43 233.015 164.795C229.03 167.16 221.95 169.55 218.69 178.35L216.075 177.325Z" fill="black"/>
<path d="M217.17 175.805H217.13C217.081 175.785 217.042 175.746 217.021 175.698C217.001 175.649 217 175.594 217.02 175.545C220.95 165.87 228.43 161.825 231.84 161.045C231.866 161.039 231.892 161.038 231.918 161.043C231.944 161.047 231.969 161.056 231.991 161.07C232.013 161.084 232.033 161.102 232.048 161.124C232.063 161.145 232.074 161.169 232.08 161.195C232.086 161.221 232.087 161.247 232.082 161.273C232.078 161.299 232.069 161.324 232.055 161.346C232.041 161.368 232.023 161.388 232.001 161.403C231.98 161.418 231.956 161.429 231.93 161.435C228.59 162.205 221.255 166.175 217.39 175.7C217.371 175.74 217.338 175.772 217.298 175.791C217.258 175.81 217.213 175.815 217.17 175.805Z" fill="white"/>
<path d="M237.06 175.92C236.725 176.68 235.895 177.08 235.125 177.39C234.355 177.7 233.515 178.035 233.095 178.755C232.255 180.205 233.635 182.255 232.735 183.66C232.523 183.943 232.256 184.18 231.95 184.357C231.644 184.534 231.306 184.647 230.955 184.69C230.38 184.795 229.795 184.795 229.215 184.845C228.937 184.841 228.66 184.82 228.385 184.78C227.577 184.6 226.732 184.689 225.98 185.035C224.825 185.685 224.48 187.14 223.77 188.265C223.336 188.927 222.765 189.488 222.094 189.909C221.424 190.331 220.67 190.602 219.885 190.705C219.385 190.77 218.385 190.865 217.885 190.57C217.846 190.551 217.809 190.527 217.775 190.5C217.7 190.42 217.61 190.315 217.57 190.26C217.567 190.248 217.567 190.237 217.57 190.225C217.365 189.47 217.7 188.69 217.715 187.91V187.77C217.68 186.865 217.655 185.965 217.635 185.065C217.592 183.398 217.575 181.732 217.585 180.065C217.585 178.985 217.465 177.805 217.925 176.79C218.425 175.67 219.685 175.645 220.16 174.55C220.35 174.11 220.45 173.645 220.635 173.2C220.921 172.553 221.379 171.997 221.959 171.592C222.539 171.188 223.219 170.95 223.925 170.905C226.12 170.795 228.085 172.57 230.28 172.405C230.845 172.36 231.4 172.185 231.96 172.085C233.735 171.75 235.79 172.255 236.79 173.76C237.009 174.07 237.149 174.429 237.196 174.806C237.243 175.183 237.196 175.566 237.06 175.92Z" fill="#BA68C8"/>
<path d="M217.35 186.76C217.303 186.746 217.263 186.714 217.238 186.671C217.214 186.628 217.208 186.578 217.22 186.53C220.25 175.16 232.22 173.53 235.035 173.72C235.06 173.721 235.084 173.727 235.106 173.738C235.129 173.749 235.149 173.764 235.165 173.783C235.181 173.802 235.194 173.823 235.201 173.847C235.209 173.87 235.212 173.895 235.21 173.92C235.205 173.969 235.181 174.013 235.144 174.045C235.107 174.077 235.059 174.093 235.01 174.09C232.265 173.895 220.545 175.5 217.58 186.63C217.566 186.677 217.534 186.717 217.491 186.742C217.448 186.766 217.398 186.772 217.35 186.76Z" fill="white"/>
<path d="M230.665 181C230.627 180.995 230.592 180.977 230.565 180.95C229.458 179.991 228.154 179.288 226.744 178.891C225.334 178.495 223.854 178.414 222.41 178.655C222.361 178.66 222.313 178.646 222.274 178.616C222.235 178.586 222.209 178.543 222.2 178.495C222.193 178.446 222.205 178.396 222.234 178.356C222.263 178.316 222.306 178.289 222.355 178.28C223.861 178.029 225.405 178.115 226.874 178.531C228.344 178.946 229.703 179.682 230.855 180.685C230.873 180.702 230.887 180.723 230.896 180.746C230.906 180.768 230.911 180.793 230.911 180.818C230.911 180.842 230.906 180.867 230.896 180.889C230.887 180.912 230.873 180.933 230.855 180.95C230.832 180.977 230.802 180.996 230.768 181.005C230.734 181.014 230.698 181.012 230.665 181Z" fill="white"/>
<path d="M188.56 40L190.15 40.61V37.11C190.15 34.33 192.365 33.665 194.77 35.055C197.18 36.445 199.13 39.82 199.13 42.6V43.1C199.465 42.9976 199.819 42.9723 200.165 43.026C200.512 43.0796 200.842 43.2109 201.13 43.41C202.043 44.0055 202.803 44.808 203.348 45.7524C203.893 46.6968 204.207 47.7563 204.265 48.845V49.075L206.485 50.355C207.086 50.747 207.585 51.275 207.944 51.896C208.303 52.5171 208.51 53.2139 208.55 53.93C208.55 55.25 207.625 55.785 206.485 55.125L188.56 44.77C187.959 44.3789 187.459 43.8511 187.101 43.2297C186.743 42.6084 186.537 41.9112 186.5 41.195C186.5 39.88 187.415 39.345 188.56 40Z" fill="#E6E6E6"/>
<path d="M209.855 37.23L212.74 38.895C212.724 38.7689 212.716 38.642 212.715 38.515V37.68C212.715 36.18 213.755 35.59 215.045 36.335C215.599 36.6744 216.074 37.1298 216.435 37.67C216.645 35.8 218.115 35.105 219.895 36.13C220.912 36.7919 221.759 37.6841 222.367 38.7343C222.975 39.7846 223.327 40.9633 223.395 42.175V43.425C223.408 43.9244 223.307 44.4203 223.1 44.875L225.5 46.255C225.874 46.5031 226.185 46.8354 226.407 47.2253C226.629 47.6152 226.757 48.0518 226.78 48.5C226.78 49.325 226.2 49.66 225.485 49.25L209.855 40.25C209.477 40.0037 209.163 39.6714 208.938 39.2804C208.712 38.8894 208.583 38.4506 208.56 38C208.56 37.155 209.14 36.82 209.855 37.23Z" fill="#E6E6E6"/>
<path d="M198.685 113.115C196.585 116.665 194.565 119.75 193.145 121.23C190.45 122.48 184.12 124.41 181.645 124.73C181.21 124.785 180.77 124.682 180.405 124.44C179.43 123.8 178.675 123.695 177.65 123.34C176.845 123.065 176.505 122.68 176.355 122.84C176.2 123.022 176.122 123.257 176.138 123.495C176.154 123.733 176.262 123.956 176.44 124.115C176.825 124.48 177.251 124.799 177.71 125.065C176.612 125.337 175.467 125.358 174.36 125.125C172.215 124.56 171.205 125.59 172.655 127.92C173.155 128.75 175.215 130.085 179.355 129.725C180.832 129.645 182.303 129.478 183.76 129.225C187.73 128.375 192.145 127.555 194.86 126.725C195.87 126.328 196.774 125.701 197.5 124.895C202.065 119.69 203.58 115.98 205.58 112.61L205.41 107.11C202.17 107 200.44 110.145 198.685 113.115Z" fill="#FFA8A7"/>
<path d="M205.965 107C205.026 106.868 204.068 106.995 203.195 107.368C202.323 107.741 201.569 108.345 201.015 109.115C198.795 111.96 194.865 118.79 194.865 118.79C194.865 118.79 196.15 122.215 199.62 122.79L205.195 115.26C205.195 115.26 207.835 110.03 205.965 107Z" fill="#455A64"/>
<path d="M218.02 183.77H214.385V190.25H218.02V183.77Z" fill="#FFA8A7"/>
<path d="M205.42 183.425L201.79 183.555L201.605 176.695L205.42 176.565V183.425Z" fill="#FFA8A7"/>
<path d="M218.53 127.675C218.53 131.285 218 160.37 218 160.37C218.08 161.41 219 163.33 218.815 167.325C218.54 172.75 218.175 187.01 218.175 187.01C217.551 187.329 216.863 187.502 216.162 187.516C215.461 187.53 214.766 187.384 214.13 187.09C214.13 187.09 211.18 167.09 210.53 161.735C209.96 157.04 208.5 141.5 208.5 141.5L206.535 159.87C206.952 161.841 207.103 163.859 206.985 165.87C206.815 168.37 205.645 181.31 205.645 181.31C205.017 181.68 204.313 181.903 203.586 181.961C202.859 182.019 202.129 181.911 201.45 181.645C201.45 181.645 199.38 162.145 199.34 159.855C199.29 157.255 200.55 127.645 200.55 127.645L218.53 127.675Z" fill="#37474F"/>
<path d="M214.385 188.38V187.84C214.035 187.995 213.23 191.205 211.785 192.575C210.64 193.665 209.08 194.92 208.68 196.135C208.28 197.35 210.855 198.095 211.93 197.9C213.17 197.67 215.33 196.755 215.87 195.9C216.41 195.045 216.665 193.805 217.105 193.185C217.545 192.565 218.56 191.875 218.795 191.155C218.868 190.481 218.798 189.8 218.59 189.155C218.42 188.485 218.24 187.75 218.02 187.815V188.225C217.507 188.646 216.863 188.872 216.2 188.865C215.67 188.91 214.38 188.8 214.385 188.38Z" fill="#263238"/>
<path d="M201.75 182.385C201.56 182.385 201.405 182.67 200.99 183.14C200.373 183.789 199.651 184.33 198.855 184.74C197.495 185.45 194.855 186.54 193.65 187.105C192.9 187.455 192.935 188.395 193.71 188.93C194.485 189.465 196.35 189.85 198.59 189.33C199.81 189.045 201.4 187.87 202.41 187.935C203.42 188 205.295 187.98 206.04 187.435C206.785 186.89 206.485 185.76 206.275 184.785C206.045 183.715 205.775 182.05 205.42 182.125V182.5C204.985 183.19 202.73 183.47 201.77 182.965L201.75 182.385Z" fill="#263238"/>
<path d="M208.5 141.5C206.609 140.881 204.88 139.848 203.44 138.475C203.44 138.475 204.44 140.38 207.32 142.155L206.7 158.56L208.5 141.5Z" fill="#263238"/>
<path d="M216.5 107.53C216.5 107.53 219.5 108.22 219.285 113.64L218.66 122.265V135.215C215.99 138.245 204.16 138.025 200.085 134.975C200.085 134.975 200.545 119.65 200.82 113.75C201.015 109.56 201.98 107.45 206.1 106.99L211.165 107.21L216.5 107.53Z" fill="#BA68C8"/>
<path d="M212.68 96.27C212.697 96.9956 212.571 97.7175 212.308 98.394C212.045 99.0705 211.65 99.6882 211.147 100.212C210.644 100.735 210.043 101.154 209.377 101.443C208.712 101.733 207.996 101.888 207.27 101.9C204.27 101.9 202.51 99.31 201.86 96.27C200.66 90.705 204.28 90.635 207.27 90.635C208.735 90.6652 210.127 91.2758 211.142 92.3324C212.156 93.3891 212.709 94.8054 212.68 96.27Z" fill="#263238"/>
<path d="M215.44 98.545C215.44 98.545 214.61 102.605 214.275 103.275C214.064 103.678 213.706 103.985 213.275 104.13L213.335 101.275L215.44 98.545Z" fill="#263238"/>
<path d="M214.395 92.73C214.395 92.73 214.99 92.58 215.625 93.57C216.165 94.415 216.29 96.315 215.44 98.57L213.875 98.76L214.395 92.73Z" fill="#263238"/>
<path d="M214.97 93.555L216.89 93.59C216.903 93.4659 216.89 93.3404 216.853 93.2215C216.815 93.1025 216.753 92.9926 216.671 92.8987C216.589 92.8048 216.488 92.7289 216.375 92.6758C216.262 92.6226 216.14 92.5934 216.015 92.59C215.753 92.5938 215.501 92.6944 215.308 92.8725C215.115 93.0506 214.995 93.2936 214.97 93.555Z" fill="#263238"/>
<path d="M215.205 93.1L216.625 91.735C216.543 91.6385 216.442 91.5601 216.329 91.5046C216.215 91.4491 216.091 91.4178 215.965 91.4126C215.838 91.4074 215.712 91.4285 215.594 91.4745C215.476 91.5206 215.369 91.5905 215.28 91.68C215.092 91.8641 214.979 92.1123 214.966 92.3754C214.952 92.6384 215.037 92.897 215.205 93.1Z" fill="#263238"/>
<path d="M213.405 98.735C213.72 98.93 214.165 98.305 214.555 97.88C214.945 97.455 216.155 97.065 216.785 98.445C217.415 99.825 216.34 101.19 215.44 101.64C213.825 102.44 213.315 101.275 213.315 101.275L213.18 107.705C210.91 111.205 205.76 111.095 207.615 107.535V105.58C206.852 105.707 206.077 105.747 205.305 105.7C204.045 105.5 203.255 104.465 202.87 103.045C202.26 100.765 202.025 98.925 202.545 94.44C203.115 89.53 208.605 89.475 211.545 91.44C214.485 93.405 213.405 98.735 213.405 98.735Z" fill="#FFA8A7"/>
<path d="M206.565 93.675C207.875 93.545 209.17 93.275 210.485 93.175C210.769 93.1406 211.056 93.1542 211.335 93.215C212.335 93.49 212.215 94.66 212.375 95.475C212.65 96.885 212.875 99.27 213.405 99.28C213.565 99.28 214.165 98.245 214.555 97.875C214.769 97.5562 214.891 97.1839 214.905 96.8C215.005 96.22 215.055 95.625 215.1 95.035C215.14 94.535 215.19 94.035 215.19 93.535C215.213 92.97 215.167 92.4042 215.055 91.85C214.93 91.3785 214.689 90.9455 214.355 90.59L214.255 90.48C213.596 89.791 212.796 89.2521 211.91 88.9C210.635 88.4224 209.298 88.1311 207.94 88.035C206.584 87.939 205.234 87.7721 203.895 87.535C203.818 87.5126 203.737 87.5126 203.66 87.535C203.606 87.5651 203.56 87.6083 203.527 87.6607C203.493 87.7131 203.474 87.7731 203.47 87.835C203.415 88.1457 203.449 88.4656 203.569 88.7576C203.688 89.0496 203.888 89.3018 204.145 89.485C203.24 89.555 202.2 89.085 201.33 88.845C201.26 88.8152 201.184 88.7998 201.107 88.7998C201.031 88.7998 200.955 88.8152 200.885 88.845C200.798 88.906 200.736 88.9966 200.71 89.1C200.647 89.3349 200.638 89.5812 200.685 89.82C200.765 90.5437 201.034 91.2335 201.465 91.82C202.139 92.6974 203.091 93.3197 204.165 93.585C204.956 93.7375 205.765 93.7678 206.565 93.675Z" fill="#263238"/>
<path d="M207.62 105.58C207.62 105.58 210.43 104.99 211.41 104.445C211.994 104.126 212.468 103.638 212.77 103.045C212.622 103.641 212.359 104.201 211.995 104.695C211.28 105.655 207.62 106.355 207.62 106.355V105.58Z" fill="#F28F8F"/>
<path d="M208.295 98C208.29 98.1543 208.345 98.3046 208.45 98.4179C208.555 98.5312 208.701 98.5985 208.855 98.605C208.977 98.6151 209.1 98.5879 209.207 98.5271C209.314 98.4662 209.4 98.3746 209.453 98.264C209.507 98.1535 209.526 98.0294 209.508 97.9078C209.49 97.7862 209.436 97.6729 209.353 97.5827C209.269 97.4925 209.16 97.4296 209.041 97.4023C208.921 97.375 208.795 97.3845 208.681 97.4296C208.567 97.4747 208.469 97.5533 208.4 97.6551C208.331 97.7569 208.294 97.8771 208.295 98Z" fill="#263238"/>
<path d="M209.195 95.575L210.4 96.27C210.488 96.0987 210.508 95.9006 210.456 95.7152C210.404 95.5299 210.284 95.3709 210.12 95.27C210.04 95.2252 209.952 95.1975 209.861 95.1886C209.769 95.1798 209.677 95.1901 209.59 95.2188C209.503 95.2474 209.423 95.2939 209.355 95.3553C209.287 95.4166 209.233 95.4914 209.195 95.575Z" fill="#263238"/>
<path d="M207.87 102.055L206.585 102.555C206.611 102.643 206.655 102.725 206.713 102.796C206.772 102.866 206.845 102.924 206.927 102.965C207.009 103.006 207.099 103.03 207.19 103.035C207.282 103.041 207.374 103.027 207.46 102.995C207.635 102.92 207.775 102.781 207.851 102.606C207.927 102.431 207.934 102.234 207.87 102.055Z" fill="#F28F8F"/>
<path d="M203.125 96.09L204.225 95.21C204.176 95.1332 204.111 95.0676 204.034 95.0176C203.958 94.9675 203.872 94.9341 203.782 94.9194C203.692 94.9048 203.6 94.9093 203.512 94.9327C203.423 94.956 203.341 94.9977 203.27 95.055C203.123 95.1796 203.027 95.354 203 95.5449C202.973 95.7357 203.018 95.9298 203.125 96.09Z" fill="#263238"/>
<path d="M203.61 97.835C203.619 97.9444 203.659 98.0489 203.726 98.1357C203.793 98.2225 203.884 98.2879 203.988 98.3238C204.092 98.3598 204.204 98.3647 204.31 98.3381C204.417 98.3115 204.513 98.2544 204.588 98.1739C204.662 98.0934 204.712 97.9929 204.73 97.8847C204.749 97.7765 204.735 97.6653 204.691 97.5647C204.648 97.464 204.575 97.3783 204.484 97.318C204.392 97.2577 204.285 97.2253 204.175 97.225C204.098 97.2276 204.022 97.2454 203.951 97.2776C203.881 97.3097 203.818 97.3554 203.765 97.4122C203.713 97.4689 203.672 97.5355 203.645 97.608C203.619 97.6806 203.607 97.7578 203.61 97.835Z" fill="#263238"/>
<path d="M206.625 97.365L206.56 100.92L204.54 100.46L206.625 97.365Z" fill="#F28F8F"/>
<path d="M158.655 127.14L161.79 125.33L163.03 123.825L159.9 125.635L158.655 127.14Z" fill="#BA68C8"/>
<path opacity="0.4" d="M158.655 127.14L161.79 125.33L163.03 123.825L159.9 125.635L158.655 127.14Z" fill="black"/>
<path d="M167.18 132.06L170.315 130.25L172.93 127.935L169.8 129.74L167.18 132.06Z" fill="#BA68C8"/>
<path opacity="0.4" d="M167.18 132.06L170.315 130.25L172.93 127.935L169.8 129.74L167.18 132.06Z" fill="black"/>
<path d="M193.81 138.305C194.551 139.299 195 140.48 195.105 141.715C194.367 140.72 193.919 139.539 193.81 138.305ZM201.095 138.4C200.04 131.225 196.185 124.13 191.595 121.475C189.39 120.2 187.35 120.155 185.715 121.11L182.765 122.81L182.6 122.91C182.469 122.982 182.342 123.062 182.22 123.15C181.978 123.317 181.75 123.504 181.54 123.71L181.44 123.805C181.35 123.895 181.255 124 181.17 124.1C181.085 124.2 180.955 124.355 180.855 124.49C180.643 124.769 180.451 125.063 180.28 125.37C180.19 125.525 180.105 125.69 180.025 125.87L154.26 111L151.13 112.805V114.805L151.395 114.955L151.645 115.1V115.5L151.145 115.795V116.955L154.93 124.955L158.67 127.12L159.915 125.62L163.215 127.595L165.11 130.84L167.2 132.045L169.815 129.725L173.025 131.58L174.105 136.035L179.5 139.155C179.767 140.289 180.101 141.406 180.5 142.5C180.535 142.61 180.58 142.725 180.625 142.85C182.415 147.55 185.26 151.575 188.47 153.43C188.855 153.658 189.258 153.854 189.675 154.015C189.896 154.103 190.121 154.178 190.35 154.24C190.55 154.293 190.75 154.338 190.95 154.375C191.581 154.49 192.229 154.49 192.86 154.375L193.12 154.31C193.244 154.285 193.366 154.25 193.485 154.205L193.765 154.095C193.864 154.059 193.96 154.014 194.05 153.96C194.142 153.92 194.233 153.875 194.32 153.825L194.45 153.745C194.474 153.737 194.496 153.725 194.515 153.71C195.23 153.3 196.99 152.28 197.47 152.01C199.85 150.63 201.39 147.14 201.39 142.205C201.386 140.931 201.287 139.659 201.095 138.4Z" fill="#BA68C8"/>
<path d="M192.895 144.36C191.655 143.645 190.655 141.525 190.655 139.625C190.655 137.725 191.655 136.76 192.895 137.47C194.135 138.18 195.13 140.305 195.13 142.21C195.13 144.115 194.13 145.075 192.895 144.36ZM197.96 140.205C196.91 133.035 193.055 125.935 188.46 123.285C186.33 122.055 184.36 121.965 182.76 122.81L182.595 122.91C182.464 122.982 182.337 123.062 182.215 123.15C181.973 123.317 181.745 123.504 181.535 123.71L181.435 123.805C181.345 123.895 181.25 124 181.165 124.1C181.08 124.2 180.95 124.355 180.85 124.49C180.638 124.769 180.446 125.063 180.275 125.37C180.185 125.525 180.1 125.69 180.02 125.87C179.554 126.836 179.218 127.86 179.02 128.915L151.125 112.805V114.805L151.39 114.955L151.64 115.1V115.5L151.14 115.795V116.955L154.925 124.955L158.665 127.12L159.91 125.62L163.21 127.595L165.105 130.84L167.195 132.045L169.81 129.725L173.02 131.58L174.1 136.035L179.5 139.155C179.767 140.289 180.101 141.406 180.5 142.5C180.535 142.61 180.58 142.725 180.625 142.85C182.415 147.55 185.26 151.575 188.47 153.43C188.855 153.658 189.258 153.854 189.675 154.015C189.896 154.103 190.121 154.178 190.35 154.24C190.55 154.293 190.75 154.338 190.95 154.375C191.581 154.49 192.229 154.49 192.86 154.375L193.12 154.31C193.244 154.285 193.366 154.25 193.485 154.205L193.765 154.095C193.864 154.059 193.96 154.014 194.05 153.96C194.142 153.92 194.233 153.875 194.32 153.825L194.45 153.745C194.474 153.737 194.496 153.725 194.515 153.71C196.795 152.27 198.26 148.83 198.26 144.015C198.252 142.739 198.151 141.466 197.96 140.205Z" fill="#BA68C8"/>
<path opacity="0.4" d="M195.13 142.205C195.13 144.11 194.13 145.075 192.895 144.36C191.66 143.645 190.655 141.53 190.655 139.625C190.655 137.72 191.655 136.755 192.895 137.47C193.252 137.687 193.563 137.973 193.81 138.31C193.917 139.545 194.366 140.725 195.105 141.72C195.123 141.881 195.132 142.043 195.13 142.205Z" fill="black"/>
<path opacity="0.4" d="M201.38 142.2C201.38 147.135 199.84 150.625 197.46 152.005C196.96 152.275 195.22 153.295 194.505 153.705C196.785 152.265 198.25 148.825 198.25 144.01C198.245 142.736 198.148 141.465 197.96 140.205C196.91 133.035 193.055 125.935 188.46 123.285C186.33 122.055 184.36 121.965 182.76 122.81L185.71 121.11C187.345 120.155 189.385 120.2 191.59 121.475C196.185 124.13 200.04 131.225 201.09 138.4C201.28 139.658 201.377 140.928 201.38 142.2Z" fill="white"/>
<path d="M198.25 144C198.25 148.815 196.785 152.255 194.505 153.695C195.22 153.285 196.98 152.265 197.46 151.995C199.84 150.615 201.38 147.125 201.38 142.19C201.38 142.01 201.38 141.825 201.38 141.64L198.25 143.45C198.245 143.645 198.25 143.825 198.25 144Z" fill="#BA68C8"/>
<path opacity="0.1" d="M198.25 144C198.25 148.815 196.785 152.255 194.505 153.695C195.22 153.285 196.98 152.265 197.46 151.995C199.84 150.615 201.38 147.125 201.38 142.19C201.38 142.01 201.38 141.825 201.38 141.64L198.25 143.45C198.245 143.645 198.25 143.825 198.25 144Z" fill="black"/>
<path opacity="0.15" d="M179.14 130.96V131.975L151.13 115.805L151.645 115.505V115.085L179.14 130.96Z" fill="black"/>
<path opacity="0.15" d="M179.14 131.38V131.975L151.13 115.805L151.645 115.505V115.5L179.14 131.38Z" fill="black"/>
<path opacity="0.15" d="M191.32 152C190.258 151.972 189.223 151.664 188.32 151.105C183.755 148.47 180.04 140.63 180.04 133.63C180.04 129.545 181.275 126.495 183.43 125.25C184.93 124.38 186.705 124.49 188.57 125.565C193.13 128.2 196.845 136.065 196.845 143.065C196.845 147.145 195.61 150.2 193.455 151.44C192.805 151.811 192.069 152.004 191.32 152ZM185.595 125.175C184.929 125.171 184.273 125.344 183.695 125.675C181.73 126.81 180.555 129.785 180.555 133.625C180.555 140.465 184.155 148.125 188.585 150.665C190.28 151.665 191.885 151.755 193.22 150.985C195.185 149.85 196.36 146.88 196.36 143.04C196.36 136.195 192.76 128.54 188.335 125.995C187.508 125.492 186.563 125.216 185.595 125.195V125.175Z" fill="black"/>
<path opacity="0.4" d="M180 125.86C179.534 126.826 179.198 127.85 179 128.905L151.105 112.795L154.235 110.99L180 125.86Z" fill="white"/>
<path d="M216.255 127.425C217.715 124.66 219.385 118.45 220.215 115.315C221.395 110.865 219.485 108.065 217.315 107.95C215.96 108.16 211.495 124.395 211.495 124.395C210.995 124.79 204.21 128.235 202.03 129.1C201.64 129.247 201.21 129.247 200.82 129.1C199.775 128.72 199.06 128.79 198.035 128.69C197.23 128.61 196.825 128.325 196.72 128.495C196.625 128.706 196.612 128.945 196.686 129.165C196.759 129.384 196.912 129.568 197.115 129.68C197.556 129.937 198.026 130.142 198.515 130.29C197.639 130.556 196.725 130.679 195.81 130.655C193.71 130.61 192.955 131.52 194.585 133.655C195.585 134.985 197.24 135.405 200.935 134.13C201.995 133.76 203.435 133.045 204.78 132.56C207.55 131.56 208.28 131.44 210.39 130.725C213.465 129.685 215.605 128.655 216.255 127.425Z" fill="#FFA8A7"/>
<path d="M216.5 107.53C217.775 107.705 219 107.99 219.755 109.03C220.51 110.07 221.115 111.53 220.375 115.505C219.808 118.3 219.05 121.054 218.105 123.745C218.105 123.745 215.135 125.015 211.98 121.795L214.15 113.405C214.15 113.405 214.5 107.95 216.5 107.53Z" fill="#455A64"/>
</svg>
