<svg width="16" height="14" viewBox="0 0 16 14" fill="none" xmlns="http://www.w3.org/2000/svg">
<path d="M0 4.54395V3.0498C0 2.17676 0.272461 1.48828 0.817383 0.984375C1.36816 0.480469 2.12109 0.228516 3.07617 0.228516C4.03711 0.228516 4.79004 0.480469 5.33496 0.984375C5.87988 1.48828 6.15234 2.17676 6.15234 3.0498V4.54395C6.15234 5.42871 5.87988 6.12598 5.33496 6.63574C4.79004 7.14551 4.03711 7.40039 3.07617 7.40039C2.12109 7.40039 1.36816 7.14551 0.817383 6.63574C0.272461 6.12598 0 5.42871 0 4.54395ZM2.08301 4.59668C2.08301 4.9541 2.15918 5.24121 2.31152 5.45801C2.46387 5.66895 2.71875 5.77441 3.07617 5.77441C3.43359 5.77441 3.68848 5.66895 3.84082 5.45801C3.99316 5.24121 4.06934 4.9541 4.06934 4.59668V3.03223C4.06934 2.6748 3.99316 2.39062 3.84082 2.17969C3.68848 1.96289 3.43359 1.85449 3.07617 1.85449C2.71875 1.85449 2.46387 1.96289 2.31152 2.17969C2.15918 2.39062 2.08301 2.6748 2.08301 3.03223V4.59668ZM12.3135 0.887695L4.81641 13.5967L3.30469 12.6738L10.7842 0L12.3135 0.887695ZM9.38672 10.6436V9.14941C9.38672 8.27637 9.65918 7.58789 10.2041 7.08398C10.7549 6.58008 11.5078 6.32812 12.4629 6.32812C13.4238 6.32812 14.1768 6.58008 14.7217 7.08398C15.2666 7.58789 15.5391 8.27637 15.5391 9.14941V10.6436C15.5391 11.5283 15.2666 12.2256 14.7217 12.7354C14.1768 13.2451 13.4238 13.5 12.4629 13.5C11.5078 13.5 10.7549 13.2451 10.2041 12.7354C9.65918 12.2256 9.38672 11.5283 9.38672 10.6436ZM11.4697 10.6963C11.4697 11.0537 11.5459 11.3408 11.6982 11.5576C11.8506 11.7686 12.1055 11.874 12.4629 11.874C12.8203 11.874 13.0752 11.7686 13.2275 11.5576C13.3799 11.3408 13.4561 11.0537 13.4561 10.6963V9.13184C13.4561 8.77441 13.3799 8.49023 13.2275 8.2793C13.0752 8.0625 12.8203 7.9541 12.4629 7.9541C12.1055 7.9541 11.8506 8.0625 11.6982 8.2793C11.5459 8.49023 11.4697 8.77441 11.4697 9.13184V10.6963Z" fill="white"/>
</svg>
