<svg width="23" height="22" viewBox="0 0 23 22" fill="none" xmlns="http://www.w3.org/2000/svg">
<g clip-path="url(#clip0_183_83)">
<path d="M14.8542 0.916687H7.18752C5.86502 0.916687 4.79169 1.94335 4.79169 3.20835V18.7917C4.79169 20.0567 5.86502 21.0834 7.18752 21.0834H14.8542C16.1767 21.0834 17.25 20.0567 17.25 18.7917V3.20835C17.25 1.94335 16.1767 0.916687 14.8542 0.916687ZM11.0209 20.1667C10.2254 20.1667 9.58335 19.5525 9.58335 18.7917C9.58335 18.0309 10.2254 17.4167 11.0209 17.4167C11.8163 17.4167 12.4584 18.0309 12.4584 18.7917C12.4584 19.5525 11.8163 20.1667 11.0209 20.1667ZM15.3334 16.5H6.70835V3.66669H15.3334V16.5Z" fill="#DC202F"/>
</g>
<defs>
<clipPath id="clip0_183_83">
<rect width="23" height="22" fill="white"/>
</clipPath>
</defs>
</svg>
