<svg width="13" height="21" viewBox="0 0 13 21" fill="none" xmlns="http://www.w3.org/2000/svg">
<path d="M10.0625 0H2.39583C1.07333 0 0 1.02667 0 2.29167V17.875C0 19.14 1.07333 20.1667 2.39583 20.1667H10.0625C11.385 20.1667 12.4583 19.14 12.4583 17.875V2.29167C12.4583 1.02667 11.385 0 10.0625 0ZM6.22917 19.25C5.43375 19.25 4.79167 18.6358 4.79167 17.875C4.79167 17.1142 5.43375 16.5 6.22917 16.5C7.02458 16.5 7.66667 17.1142 7.66667 17.875C7.66667 18.6358 7.02458 19.25 6.22917 19.25ZM10.5417 15.5833H1.91667V2.75H10.5417V15.5833Z" fill="black"/>
</svg>
