<svg width="48" height="48" viewBox="0 0 48 48" fill="none" xmlns="http://www.w3.org/2000/svg">
<path d="M21 1.73205C22.8564 0.660254 25.1436 0.660254 27 1.73205L41.7846 10.2679C43.641 11.3397 44.7846 13.3205 44.7846 15.4641V32.5359C44.7846 34.6795 43.641 36.6603 41.7846 37.7321L27 46.2679C25.1436 47.3397 22.8564 47.3397 21 46.2679L6.21539 37.7321C4.35899 36.6603 3.21539 34.6795 3.21539 32.5359V15.4641C3.21539 13.3205 4.35898 11.3397 6.21539 10.2679L21 1.73205Z" fill="white"/>
<path d="M22 3.1547C23.2376 2.44017 24.7624 2.44017 26 3.1547L41.0526 11.8453C42.2902 12.5598 43.0526 13.8803 43.0526 15.3094V32.6906C43.0526 34.1197 42.2902 35.4402 41.0526 36.1547L26 44.8453C24.7624 45.5598 23.2376 45.5598 22 44.8453L6.94744 36.1547C5.70984 35.4402 4.94744 34.1197 4.94744 32.6906V15.3094C4.94744 13.8803 5.70984 12.5598 6.94744 11.8453L22 3.1547Z" fill="url(#paint0_linear_13_370)"/>
<path opacity="0.5" d="M25.1667 12.3333H22.8334C20.633 12.3333 19.534 12.3333 18.8504 13.0169C18.1667 13.7006 18.1667 14.7996 18.1667 16.9999V21.6666H29.8334V16.9999C29.8334 14.7996 29.8334 13.7006 29.1497 13.0169C28.466 12.3333 27.367 12.3333 25.1667 12.3333Z" fill="white"/>
<path fill-rule="evenodd" clip-rule="evenodd" d="M24 35.6667C26.4754 35.6667 28.8493 34.6833 30.5997 32.933C32.35 31.1827 33.3334 28.8087 33.3334 26.3333C33.3334 23.858 32.35 21.484 30.5997 19.7337C28.8493 17.9833 26.4754 17 24 17C21.5247 17 19.1507 17.9833 17.4004 19.7337C15.65 21.484 14.6667 23.858 14.6667 26.3333C14.6667 28.8087 15.65 31.1827 17.4004 32.933C19.1507 34.6833 21.5247 35.6667 24 35.6667ZM24 22.8333C23.6687 22.8333 23.447 23.23 23.0037 24.0268L22.8894 24.2322C22.7634 24.4585 22.7004 24.5705 22.6024 24.6452C22.5032 24.7198 22.3807 24.7478 22.1357 24.8027L21.914 24.854C21.053 25.0488 20.6225 25.1457 20.5199 25.4747C20.4172 25.8048 20.7112 26.1478 21.298 26.8338L21.4497 27.0112C21.6165 27.206 21.7005 27.3028 21.7379 27.4242C21.7752 27.5455 21.7624 27.675 21.7379 27.9352L21.7145 28.172C21.6259 29.0878 21.5815 29.5463 21.8487 29.7493C22.117 29.9523 22.5207 29.7668 23.3269 29.3958L23.5345 29.3002C23.7644 29.1952 23.8787 29.1415 24 29.1415C24.1214 29.1415 24.2357 29.1952 24.4655 29.3002L24.6732 29.3958C25.4794 29.768 25.883 29.9523 26.1514 29.7493C26.4197 29.5463 26.3742 29.0878 26.2855 28.172L26.2622 27.9352C26.2377 27.675 26.2249 27.5455 26.2622 27.4242C26.2995 27.304 26.3835 27.206 26.5504 27.0112L26.702 26.8338C27.2889 26.1478 27.5829 25.8048 27.4802 25.4747C27.3775 25.1457 26.947 25.0488 26.086 24.854L25.8644 24.8027C25.6194 24.7478 25.4969 24.721 25.3977 24.6452C25.2997 24.5705 25.2367 24.4585 25.1107 24.2322L24.9964 24.0268C24.553 23.23 24.3314 22.8333 24 22.8333Z" fill="white"/>
<defs>
<linearGradient id="paint0_linear_13_370" x1="1.99931" y1="45.9997" x2="45.9995" y2="1.99946" gradientUnits="userSpaceOnUse">
<stop stop-color="#DC202F"/>
<stop offset="1" stop-color="#DC202F" stop-opacity="0.54"/>
</linearGradient>
</defs>
</svg>
