<svg width="26" height="23" viewBox="0 0 26 23" fill="none" xmlns="http://www.w3.org/2000/svg">
<path d="M14.4394 0.00436268C8.07692 -0.170637 2.86442 4.94186 2.86442 11.2544H0.626918C0.064418 11.2544 -0.210582 11.9294 0.189418 12.3169L3.67692 15.8169C3.92692 16.0669 4.31442 16.0669 4.56442 15.8169L8.05192 12.3169C8.43942 11.9294 8.16442 11.2544 7.60192 11.2544H5.36442C5.36442 6.37936 9.33942 2.44186 14.2394 2.50436C18.8894 2.56686 22.8019 6.47936 22.8644 11.1294C22.9269 16.0169 18.9894 20.0044 14.1144 20.0044C12.1019 20.0044 10.2394 19.3169 8.76442 18.1544C8.26442 17.7669 7.56442 17.8044 7.11442 18.2544C6.58942 18.7794 6.62692 19.6669 7.21442 20.1169C9.11442 21.6169 11.5019 22.5044 14.1144 22.5044C20.4269 22.5044 25.5394 17.2919 25.3644 10.9294C25.2019 5.06686 20.3019 0.166863 14.4394 0.00436268ZM13.8019 6.25436C13.2894 6.25436 12.8644 6.67936 12.8644 7.19186V11.7919C12.8644 12.2294 13.1019 12.6419 13.4769 12.8669L17.3769 15.1794C17.8269 15.4419 18.4019 15.2919 18.6644 14.8544C18.9269 14.4044 18.7769 13.8294 18.3394 13.5669L14.7394 11.4294V7.17936C14.7394 6.67936 14.3144 6.25436 13.8019 6.25436Z" fill="black"/>
</svg>
