<svg width="19" height="17" viewBox="0 0 19 17" fill="none" xmlns="http://www.w3.org/2000/svg">
<path d="M10.8144 0.0032956C6.04922 -0.128901 2.14531 3.73313 2.14531 8.50165H0.469532C0.048246 8.50165 -0.157716 9.01155 0.141865 9.30427L2.75384 11.9482C2.94107 12.1371 3.23129 12.1371 3.41853 11.9482L6.0305 9.30427C6.32072 9.01155 6.11476 8.50165 5.69347 8.50165H4.01769C4.01769 4.81903 6.99478 1.84461 10.6646 1.89182C14.1473 1.93903 17.0775 4.89457 17.1244 8.40722C17.1712 12.0993 14.2222 15.1115 10.571 15.1115C9.06376 15.1115 7.66883 14.5921 6.56413 13.714C6.18965 13.4213 5.66539 13.4496 5.32836 13.7895C4.93516 14.1861 4.96324 14.8565 5.40325 15.1965C6.82626 16.3296 8.61438 17 10.571 17C15.2988 17 19.1278 13.0624 18.9967 8.25614C18.875 3.82755 15.2052 0.12605 10.8144 0.0032956ZM10.337 4.7246C9.95314 4.7246 9.63483 5.04565 9.63483 5.4328V8.90768C9.63483 9.23817 9.81271 9.54978 10.0936 9.71975L13.0145 11.4666C13.3515 11.6649 13.7822 11.5516 13.9788 11.2211C14.1754 10.8812 14.063 10.4468 13.7353 10.2485L11.0391 8.63385V5.42336C11.0391 5.04565 10.7208 4.7246 10.337 4.7246Z" fill="#F12525"/>
</svg>
