<svg width="28" height="29" viewBox="0 0 28 29" fill="none" xmlns="http://www.w3.org/2000/svg">
<path d="M25.3235 6.24021H23.475C25.125 5.2652 25.6059 3.41667 25.103 1.8858C25.0985 1.87255 25.0897 1.85933 25.0853 1.84608C23.3382 -1.7451 19.1118 0.540214 16.2573 3.32843C15.4721 3.45638 14.6779 3.51816 13.8706 3.51374C12.5338 3.50932 11.6382 3.33284 11.2853 3.28432C8.44412 0.544603 4.24853 -1.7451 2.50144 1.84608C2.49702 1.85933 2.48824 1.87255 2.48383 1.8858C1.99413 3.37256 2.41322 5.23431 4.11179 6.24021H2.25441C1.01031 6.24021 0 7.25049 0 8.49461V11.574C0 11.7549 0.150039 11.9049 0.330882 11.9049H1.34561V26.7725C1.34561 27.9417 2.29851 28.8946 3.46764 28.8946H24.1059C25.2794 28.8946 26.2323 27.9417 26.2323 26.7725V11.9049H27.2426C27.4235 11.9049 27.5735 11.7549 27.5735 11.574V8.49461C27.5735 7.25049 26.5632 6.24021 25.3235 6.24021ZM16.7691 3.90639C18.2559 3.62845 19.7029 3.1255 21.075 2.39313C21.2338 2.30492 21.2956 2.10638 21.2074 1.94315C21.1235 1.78431 20.9206 1.72256 20.7618 1.8108C19.7294 2.36227 18.6485 2.78137 17.5456 3.06373C19.9235 1.06522 23.1 -0.677437 24.4765 2.1108C24.9927 3.89756 24.2029 5.66227 21.6486 6.24021H16.7691V3.90639ZM11.3074 6.90197H16.2706L22.3279 13.7446L21.1765 13.7137C21.0618 13.7093 20.947 13.7667 20.8853 13.8681L20.0735 15.174C18.4191 13.3255 15.4809 10.0431 13.9412 8.32255C13.875 8.24755 13.7823 8.21225 13.6897 8.21225C13.5927 8.21225 13.5044 8.25638 13.4426 8.33138L7.42945 15.527L7.2485 14.2873C7.22206 14.124 7.08532 14.0005 6.91762 14.0005H5.74413L11.3074 6.90197ZM3.11032 2.1108C4.47354 -0.655384 7.61029 1.03875 9.97499 3.00638C8.01173 2.50784 6.75885 1.81961 6.7456 1.8108C6.58232 1.72256 6.38381 1.77992 6.29118 1.93874C6.20297 2.09755 6.26027 2.3005 6.41914 2.38874C6.4941 2.43285 8.20151 3.37256 10.8177 3.87109V6.24021H5.93822C3.40145 5.66668 2.58529 3.9152 3.11032 2.1108ZM11.0692 28.2328H3.46764C2.66472 28.2328 2.00737 27.5755 2.00737 26.7725V11.9049H6.5471L4.80442 14.1284C4.72498 14.2299 4.71173 14.3623 4.76914 14.477C4.82203 14.5917 4.93674 14.6623 5.0647 14.6623H6.63531L6.88234 16.352C6.92645 16.6387 7.28383 16.7358 7.46467 16.5152L11.0692 12.2005V28.2328ZM25.5706 26.7725C25.5706 27.5755 24.9132 28.2328 24.1059 28.2328H16.5V12.174L19.875 15.9461C20.025 16.1137 20.2897 16.0829 20.4044 15.8976L21.3485 14.3799L23.0735 14.4284C23.1971 14.424 23.3294 14.3578 23.3824 14.2387C23.4397 14.1196 23.4177 13.9784 23.3294 13.8814L21.5823 11.9049H25.5706V26.7725Z" fill="black"/>
</svg>
