<svg width="19" height="19" viewBox="0 0 19 19" fill="none" xmlns="http://www.w3.org/2000/svg">
<g clip-path="url(#clip0_41_416)">
<path d="M17.9764 16.857L13.4835 12.3641C14.4944 11.1025 15.0441 9.53343 15.0415 7.91675C15.0415 3.98177 11.8517 0.791748 7.9165 0.791748C3.98152 0.791748 0.791504 3.98177 0.791504 7.91675C0.791504 11.8517 3.98152 15.0417 7.9165 15.0417C9.59879 15.0417 11.1449 14.4587 12.3639 13.4836L16.8568 17.9765C16.9302 18.0501 17.0175 18.1085 17.1135 18.1483C17.2096 18.1881 17.3125 18.2085 17.4165 18.2084C17.5731 18.2084 17.7261 18.162 17.8563 18.075C17.9865 17.988 18.088 17.8644 18.1479 17.7198C18.2078 17.5751 18.2235 17.416 18.193 17.2624C18.1625 17.1088 18.0871 16.9678 17.9764 16.857ZM7.9165 13.4584C4.85592 13.4584 2.37484 10.9773 2.37484 7.91675C2.37484 4.85617 4.85592 2.37508 7.9165 2.37508C10.9773 2.37508 13.4582 4.85617 13.4582 7.91675C13.4582 10.9773 10.9773 13.4584 7.9165 13.4584Z" fill="#F52929"/>
</g>
<defs>
<clipPath id="clip0_41_416">
<rect width="19" height="19" fill="white"/>
</clipPath>
</defs>
</svg>
