<svg width="20" height="20" viewBox="0 0 20 20" fill="none" xmlns="http://www.w3.org/2000/svg">
<path d="M14.993 13.4542C14.3663 13.4542 13.7812 13.6622 13.3633 14.0784L7.38844 10.6245C7.43027 10.4163 7.47211 10.2497 7.47211 10.0417C7.47211 9.83355 7.43027 9.66695 7.38844 9.45891L13.2801 6.0468C13.7395 6.46293 14.3246 6.71246 14.993 6.71246C16.3718 6.71246 17.5 5.58879 17.5 4.21559C17.5 2.84246 16.3718 1.71875 14.993 1.71875C13.6143 1.71875 12.4861 2.84246 12.4861 4.21562C12.4861 4.42371 12.5277 4.59035 12.5697 4.7984L6.67828 8.21051C6.21863 7.79434 5.63371 7.54484 4.96516 7.54484C3.58641 7.54484 2.5 8.66852 2.5 10.0417C2.5 11.4149 3.62801 12.5386 5.00695 12.5386C5.67551 12.5386 6.26043 12.289 6.72008 11.8729L12.6533 15.3268C12.6113 15.493 12.5697 15.6597 12.5697 15.8677C12.5697 17.1995 13.6559 18.2813 14.993 18.2813C16.3301 18.2813 17.4163 17.1995 17.4163 15.8677C17.4163 14.5359 16.3302 13.4542 14.993 13.4542Z" fill="#DC202F"/>
</svg>
