<svg width="25" height="25" viewBox="0 0 25 25" fill="none" xmlns="http://www.w3.org/2000/svg">
<path d="M24.2625 11.975L13.0125 0.725C12.5625 0.275 11.9375 0 11.25 0H2.5C1.125 0 0 1.125 0 2.5V11.25C0 11.9375 0.275 12.5625 0.7375 13.025L11.9875 24.275C12.4375 24.725 13.0625 25 13.75 25C14.4375 25 15.0625 24.725 15.5125 24.2625L24.2625 15.5125C24.725 15.0625 25 14.4375 25 13.75C25 13.0625 24.7125 12.425 24.2625 11.975ZM4.375 6.25C3.3375 6.25 2.5 5.4125 2.5 4.375C2.5 3.3375 3.3375 2.5 4.375 2.5C5.4125 2.5 6.25 3.3375 6.25 4.375C6.25 5.4125 5.4125 6.25 4.375 6.25Z" fill="black"/>
</svg>
