<svg width="22" height="22" viewBox="0 0 22 22" fill="none" xmlns="http://www.w3.org/2000/svg">
<g clip-path="url(#clip0_42_1816)">
<path d="M2.75 11C3.8115 11 4.7685 10.5875 5.5 9.93025V16.5H16.5V9.93025C17.2301 10.5875 18.1899 11 19.25 11V19.25H2.75V11ZM19.25 0L22 6.875C22 8.393 20.768 9.625 19.25 9.625C17.732 9.625 16.5 8.393 16.5 6.875C16.5 8.393 15.268 9.625 13.75 9.625C12.232 9.625 11 8.393 11 6.875C11 8.393 9.768 9.625 8.25 9.625C6.732 9.625 5.5 8.393 5.5 6.875C5.5 8.393 4.268 9.625 2.75 9.625C1.232 9.625 0 8.393 0 6.875L2.75 0H19.25ZM1.375 22V20.625H20.625V22H1.375Z" fill="#DC202F"/>
</g>
<defs>
<clipPath id="clip0_42_1816">
<rect width="22" height="22" fill="white"/>
</clipPath>
</defs>
</svg>
