<svg width="25" height="25" viewBox="0 0 25 25" fill="none" xmlns="http://www.w3.org/2000/svg">
<g clip-path="url(#clip0_40_354)">
<path d="M0 12.5C0 19.4036 5.59644 25 12.5 25C19.4036 25 25 19.4036 25 12.5C25 5.59644 19.4036 0 12.5 0C5.59644 0 0 5.59644 0 12.5ZM11.0352 4.39453C11.0352 3.5855 11.691 2.92969 12.5 2.92969C13.309 2.92969 13.9648 3.5855 13.9648 4.39453V11.6542L17.7148 13.8193C18.4154 14.2238 18.6555 15.1197 18.251 15.8203C17.8465 16.5209 16.9506 16.761 16.25 16.3565L11.7676 13.7686C11.2981 13.4975 11.0358 13.0058 11.0354 12.5H11.0352V4.39453Z" fill="#DC202F"/>
</g>
<defs>
<clipPath id="clip0_40_354">
<rect width="25" height="25" fill="white"/>
</clipPath>
</defs>
</svg>
