<svg width="69" height="69" viewBox="0 0 69 69" fill="none" xmlns="http://www.w3.org/2000/svg">
<path d="M29.925 2.46817C32.5704 0.940863 35.8296 0.940862 38.475 2.46817L59.5431 14.6318C62.1884 16.1591 63.8181 18.9817 63.8181 22.0363V46.3637C63.8181 49.4183 62.1884 52.2409 59.5431 53.7682L38.475 65.9318C35.8296 67.4591 32.5704 67.4591 29.925 65.9318L8.85693 53.7682C6.21155 52.2409 4.58193 49.4183 4.58193 46.3637V22.0363C4.58193 18.9817 6.21155 16.1591 8.85693 14.6318L29.925 2.46817Z" fill="white"/>
<path d="M31.15 4.49555C32.9136 3.47734 35.0864 3.47734 36.85 4.49555L58.2999 16.8796C60.0635 17.8979 61.1499 19.7796 61.1499 21.816V46.5842C61.1499 48.6206 60.0635 50.5023 58.2999 51.5205L36.85 63.9047C35.0864 64.9229 32.9136 64.9229 31.15 63.9047L9.70013 51.5205C7.93655 50.5023 6.85013 48.6206 6.85013 46.5842V21.816C6.85013 19.7796 7.93654 17.8979 9.70013 16.8797L31.15 4.49555Z" fill="url(#paint0_linear_13_358)"/>
<path opacity="0.5" d="M35.6625 17.3748H32.3375C29.202 17.3748 27.636 17.3748 26.6617 18.349C25.6875 19.3232 25.6875 20.8893 25.6875 24.0248V30.6748H42.3125V24.0248C42.3125 20.8893 42.3125 19.3232 41.3383 18.349C40.3641 17.3748 38.798 17.3748 35.6625 17.3748Z" fill="white"/>
<path fill-rule="evenodd" clip-rule="evenodd" d="M34 50.6249C37.5274 50.6249 40.9103 49.2237 43.4045 46.7294C45.8988 44.2352 47.3 40.8523 47.3 37.3249C47.3 33.7975 45.8988 30.4146 43.4045 27.9204C40.9103 25.4261 37.5274 24.0249 34 24.0249C30.4726 24.0249 27.0897 25.4261 24.5955 27.9204C22.1013 30.4146 20.7 33.7975 20.7 37.3249C20.7 40.8523 22.1013 44.2352 24.5955 46.7294C27.0897 49.2237 30.4726 50.6249 34 50.6249ZM34 32.3374C33.5279 32.3374 33.212 32.9027 32.5802 34.0381L32.4173 34.3307C32.2378 34.6533 32.148 34.8129 32.0083 34.9193C31.867 35.0257 31.6925 35.0656 31.3433 35.1437L31.0275 35.2169C29.8005 35.4945 29.1871 35.6325 29.0408 36.1013C28.8945 36.5718 29.3134 37.0606 30.1497 38.0381L30.3658 38.2908C30.6035 38.5685 30.7232 38.7064 30.7764 38.8793C30.8296 39.0522 30.8113 39.2368 30.7764 39.6075L30.7432 39.945C30.6168 41.2501 30.5536 41.9034 30.9344 42.1927C31.3167 42.482 31.892 42.2176 33.0408 41.689L33.3367 41.5526C33.6642 41.403 33.8271 41.3265 34 41.3265C34.1729 41.3265 34.3358 41.403 34.6634 41.5526L34.9593 41.689C36.1081 42.2193 36.6833 42.482 37.0657 42.1927C37.448 41.9034 37.3832 41.2501 37.2568 39.945L37.2236 39.6075C37.1887 39.2368 37.1704 39.0522 37.2236 38.8793C37.2768 38.7081 37.3965 38.5685 37.6342 38.2908L37.8504 38.0381C38.6866 37.0606 39.1055 36.5718 38.9592 36.1013C38.813 35.6325 38.1995 35.4945 36.9726 35.2169L36.6567 35.1437C36.3076 35.0656 36.133 35.0273 35.9917 34.9193C35.852 34.8129 35.7623 34.6533 35.5827 34.3307L35.4198 34.0381C34.788 32.9027 34.4722 32.3374 34 32.3374Z" fill="white"/>
<defs>
<linearGradient id="paint0_linear_13_358" x1="2.64905" y1="65.5497" x2="65.3493" y2="2.84933" gradientUnits="userSpaceOnUse">
<stop stop-color="#DC202F"/>
<stop offset="1" stop-color="#B6B6B6"/>
</linearGradient>
</defs>
</svg>
