<svg width="28" height="25" viewBox="0 0 28 25" fill="none" xmlns="http://www.w3.org/2000/svg">
<path d="M7.43748 4.5271H20.5623C21.7742 4.5271 22.7498 5.39818 22.7498 6.4802V7.45676C22.7498 8.53879 21.7742 9.40987 20.5623 9.40987H7.43748C6.22562 9.40987 5.25 8.53879 5.25 7.45676V6.4802C5.25 5.39818 6.22562 4.5271 7.43748 4.5271Z" fill="white"/>
<path d="M3.06248 6.57788H24.9373C26.1491 6.57788 27.1247 7.44896 27.1247 8.53098V20.3123C27.1247 21.3943 26.1491 22.2654 24.9373 22.2654H3.06248C1.85061 22.2654 0.875 21.3943 0.875 20.3123V8.53098C0.875 7.44896 1.85061 6.57788 3.06248 6.57788Z" fill="#DC202F"/>
<path d="M23.8425 11.7791C24.4468 11.7785 24.9371 12.2156 24.9373 12.7551C24.9369 13.2947 24.4468 13.7317 23.8425 13.7312H15.6C14.9964 13.7309 14.5071 13.2941 14.5068 12.7551C14.5071 12.2162 14.9964 11.7793 15.6 11.7791H23.8425ZM20.705 15.7461C21.3092 15.7456 21.7995 16.1827 21.7998 16.7222C21.7994 17.2617 21.3092 17.6988 20.705 17.6983H15.6C14.9964 17.698 14.5071 17.2612 14.5068 16.7222C14.5071 16.1832 14.9964 15.7464 15.6 15.7461H20.705Z" fill="white"/>
<path d="M11.9879 2.73438H16.0118C16.6177 2.73438 17.1055 3.16992 17.1055 3.71093V4.93425C17.1055 8.57485 10.8942 8.58263 10.8942 4.93425V3.71093C10.8942 3.16992 11.382 2.73438 11.9879 2.73438Z" fill="#DC202F"/>
<path d="M13.9999 6.27439C13.8473 6.27439 13.6961 6.24755 13.5552 6.19541C13.4142 6.14326 13.2861 6.06683 13.1781 5.97049C13.0702 5.87414 12.9846 5.75975 12.9262 5.63387C12.8678 5.50798 12.8378 5.37306 12.8378 5.2368C12.8378 4.96162 12.9602 4.6977 13.1781 4.50312C13.3961 4.30853 13.6917 4.19922 13.9999 4.19922C14.3081 4.19922 14.6037 4.30853 14.8216 4.50312C15.0395 4.6977 15.162 4.96162 15.162 5.2368C15.162 5.37306 15.1319 5.50798 15.0735 5.63387C15.0151 5.75975 14.9295 5.87414 14.8216 5.97049C14.7137 6.06683 14.5856 6.14326 14.4446 6.19541C14.3036 6.24755 14.1525 6.27439 13.9999 6.27439Z" fill="white"/>
<path d="M10.6954 18.1272C9.9358 18.6251 8.88021 17.4607 7.93786 17.4649C6.99551 17.4693 5.95279 18.6425 5.18769 18.1513C4.4226 17.6601 5.33665 16.404 5.04105 15.605C4.74544 14.8061 3.17317 14.2833 3.45995 13.4819C3.74676 12.6804 5.36726 13.0684 6.12692 12.5705C6.88657 12.0726 6.95757 10.5759 7.89992 10.5718C8.84226 10.5674 8.92974 12.0636 9.69483 12.5548C10.4599 13.046 12.0761 12.6438 12.3717 13.4428C12.6673 14.2417 11.1008 14.7782 10.8141 15.5797C10.5273 16.3812 11.4551 17.6293 10.6954 18.1272Z" fill="white"/>
</svg>
